<?xml version="1.0" encoding="utf-8"?>
<!-- Generator: Adobe Illustrator 16.0.0, SVG Export Plug-In . SVG Version: 6.00 Build 0)  -->
<!DOCTYPE svg PUBLIC "-//W3C//DTD SVG 1.1//EN" "http://www.w3.org/Graphics/SVG/1.1/DTD/svg11.dtd">
<svg version="1.1" id="Capa_1" xmlns="http://www.w3.org/2000/svg" xmlns:xlink="http://www.w3.org/1999/xlink" x="0px" y="0px"
	 width="1280px" height="500px" viewBox="0 0 1280 500" enable-background="new 0 0 1280 500" xml:space="preserve">
<g>
	<path fill-rule="evenodd" clip-rule="evenodd" fill="#FFFFFF" d="M623.832,185.549c4.482,0.062,8.608,1.46,12.347,3.662
		c2.966,1.747,4.841,1.414,7.273-1.086c9.409-9.669,19.065-19.097,28.64-28.604c4.143-4.113,7.177-4.579,10.318-1.629
		c3.188,2.995,2.749,6.511-1.436,10.732c-5.512,5.562-11.059,11.087-16.609,16.61c-1.455,1.448-2.559,2.263,0.369,3.793
		c9.412,4.92,12.711,12.78,10.363,23.459c-1.158,5.258-3.064,10.123-6.797,14.232c-5.126,5.641-5.41,13.045-6.731,20.033
		c-0.929,4.906-1.807,9.837-4.28,14.251c-1.024,1.826-2.011,4.205-4.621,3.973c-2.758-0.246-4.207-2.32-5.24-4.77
		c-2.051-4.861-1.842-10.105-2.717-15.164c-0.141-0.816-0.061-1.67-0.186-2.49c-0.457-2.988-1.805-5.889-4.791-6.357
		c-3.264-0.512-4.388,2.736-5.021,5.248c-1.258,4.982-2.048,10.082-3.088,15.121c-0.301,1.459-0.676,2.926-1.23,4.301
		c-0.74,1.836-1.424,4.053-3.725,4.299c-2.587,0.275-4.389-1.484-5.658-3.502c-3.098-4.926-4.259-10.514-4.434-16.187
		c-0.264-8.49-2.819-15.672-8.619-22.19c-6.107-6.862-7.514-15.286-3.115-23.72C608.815,191.952,614.182,185.693,623.832,185.549z"
		/>
	<path fill-rule="evenodd" clip-rule="evenodd" fill="#00ADB5" d="M637.254,205.795c-1.731-0.167-3.148,0.338-3.846-0.8
		c-0.851-1.39,0.656-2.057,1.401-2.795c13.489-13.354,27.013-26.673,40.528-40c1.23-1.213,2.635-2.547,4.252-0.946
		c1.85,1.834-0.217,2.975-1.268,4.052c-4.303,4.412-8.716,8.715-13.042,13.104c-4.513,4.578-8.923,9.023-12.023,14.992
		C649.953,199.762,644.322,204.503,637.254,205.795z"/>
</g>
</svg>
