<?xml version="1.0" encoding="utf-8"?>
<!-- Generator: Adobe Illustrator 16.0.0, SVG Export Plug-In . SVG Version: 6.00 Build 0)  -->
<!DOCTYPE svg PUBLIC "-//W3C//DTD SVG 1.1//EN" "http://www.w3.org/Graphics/SVG/1.1/DTD/svg11.dtd">
<svg version="1.1" id="Capa_1" xmlns="http://www.w3.org/2000/svg" xmlns:xlink="http://www.w3.org/1999/xlink" x="0px" y="0px"
	 width="1280px" height="500px" viewBox="0 0 1280 500" enable-background="new 0 0 1280 500" xml:space="preserve">
<g>
	<path fill-rule="evenodd" clip-rule="evenodd" fill="#FFFFFF" d="M749.102,212.492c-0.303,8.875-3.014,18.229-9.966,26.112
		c-6.53,7.405-7.602,16.79-9.048,25.981c-1.09,6.923-2.53,13.749-5.537,20.101c-1.465,3.093-2.998,6.708-7.338,6.428
		c-4.131-0.267-5.838-3.604-7.002-6.938c-2.152-6.162-2.838-12.627-3.143-19.114c-0.142-3.022-0.396-5.986-1.859-8.693
		c-1.299-2.402-2.813-4.632-6-4.485c-2.94,0.136-4.324,2.295-5.383,4.595c-2.473,5.367-2.547,11.3-3.814,16.954
		c-0.908,4.046-1.854,8.091-2.992,12.076c-0.785,2.749-1.957,5.769-5.168,6.096c-3.407,0.348-5.859-1.848-7.629-4.729
		c-4.032-6.567-5.758-13.956-5.979-21.396c-0.366-12.345-4.344-22.589-12.384-32.2c-14.601-17.454-3.929-46.432,18.037-50.501
		c8.277-1.533,15.792,1.381,22.88,5.218c3.254,1.761,5.32,1.66,8.75-0.409c10-6.035,20.546-4.48,30.486,0.553
		C745.221,192.801,749.117,200.928,749.102,212.492z"/>
	<path fill-rule="evenodd" clip-rule="evenodd" fill="#00ADB5" d="M706.545,191.599c4.724-4.179,10.135-3.585,15.43-3.525
		c2.153,0.024,2.24,1.508,2.24,3.089c-0.006,10.98-0.04,21.96,0.025,32.939c0.014,2.363-0.928,3.209-3.248,3.2
		c-14.639-0.055-29.279-0.073-43.918,0.013c-2.787,0.016-3.285-1.331-3.271-3.692c0.063-11.313,0.1-22.626-0.02-33.938
		c-0.031-3.008,1.396-3.75,3.97-3.593c6.426,0.391,12.336,2.479,17.934,5.517c5.856,3.179,11.315,6.966,16.491,11.16
		c1.713,1.389,3.704,3.128,5.485,0.614c1.476-2.083-0.358-3.674-2.007-4.925C712.751,196.252,709.829,194.068,706.545,191.599z"/>
</g>
</svg>
