<?xml version="1.0" encoding="utf-8"?>
<!-- Generator: Adobe Illustrator 16.0.0, SVG Export Plug-In . SVG Version: 6.00 Build 0)  -->
<!DOCTYPE svg PUBLIC "-//W3C//DTD SVG 1.1//EN" "http://www.w3.org/Graphics/SVG/1.1/DTD/svg11.dtd">
<svg version="1.1" id="Capa_1" xmlns="http://www.w3.org/2000/svg" xmlns:xlink="http://www.w3.org/1999/xlink" x="0px" y="0px"
	 width="1280px" height="500px" viewBox="0 0 1280 500" enable-background="new 0 0 1280 500" xml:space="preserve">
<g>
	<path fill-rule="evenodd" clip-rule="evenodd" fill="#FFFFFF" d="M581.912,220.891c8.074,0,15.367,0.092,22.657-0.046
		c2.905-0.055,3.341,1.489,3.167,3.761c-0.338,4.414,1.893,6.006,6.052,5.681c1.82-0.142,3.667-0.121,5.49-0.004
		c3.989,0.256,6.089-1.443,5.688-5.527c-0.305-3.11,0.945-4.002,3.966-3.93c7.644,0.183,15.294,0.061,22.824,0.061
		c0.944,1.607-0.237,2.529-0.9,3.204c-6.233,6.34-7.724,14.447-8.928,22.761c-0.857,5.917-2.035,11.816-4.969,17.138
		c-1.187,2.151-2.493,4.687-5.435,4.455c-2.753-0.217-4.204-2.43-5.266-4.808c-2.431-5.442-2.168-11.374-3.102-17.088
		c-0.188-1.144,0.076-2.409-0.301-3.465c-0.986-2.767-1.646-6.188-5.488-6.194c-3.537-0.005-4.637,3.019-5.279,5.76
		c-1.479,6.294-2.518,12.691-3.988,18.988c-0.701,3.007-1.354,6.796-5.256,7.004c-3.824,0.204-5.627-3.027-7.051-6.155
		c-2.304-5.063-3.539-10.477-3.621-15.942c-0.133-8.888-2.439-16.713-8.838-23.104C582.899,223.002,582.701,222.328,581.912,220.891
		z"/>
	<path fill-rule="evenodd" clip-rule="evenodd" fill="#FFFFFF" d="M640.813,211.997c-3.995,0.002-8.002-0.187-11.982,0.063
		c-3.166,0.197-4.176-1.039-3.861-4.015c0.174-1.646,0.008-3.326,0.033-4.99c0.053-3.54-1.734-5.195-5.21-5.165
		c-0.999,0.009-1.998-0.003-2.997-0.004c-8.892-0.009-9.217,0.111-8.965,8.863c0.116,4.056-0.895,5.565-5.193,5.349
		c-7.141-0.359-14.317-0.257-21.469-0.028c-3.365,0.107-4.258-1.156-4.252-4.317c0.021-11.368,5.863-19.287,15.154-24.64
		c7.882-4.541,15.521-1.06,22.748,2.587c4.76,2.401,9.044,5.601,13.199,8.946c1.027,0.828,2.149,2.007,3.396,0.513
		c1.238-1.486-0.111-2.434-1.109-3.261c-1.535-1.271-3.17-2.423-4.744-3.65c-0.989-0.772-2.827-1.194-2.25-2.801
		c0.309-0.86,1.711-1.6,2.76-1.883c8.912-2.409,17.221-0.953,24.404,4.852c6.555,5.297,7.061,12.792,6.416,20.51
		c-0.188,2.246-1.322,3.158-3.593,3.101C649.139,211.919,644.975,211.995,640.813,211.997z"/>
</g>
</svg>
