<?xml version="1.0" encoding="utf-8"?>
<!-- Generator: Adobe Illustrator 16.0.0, SVG Export Plug-In . SVG Version: 6.00 Build 0)  -->
<!DOCTYPE svg PUBLIC "-//W3C//DTD SVG 1.1//EN" "http://www.w3.org/Graphics/SVG/1.1/DTD/svg11.dtd">
<svg version="1.1" id="Capa_1" xmlns="http://www.w3.org/2000/svg" xmlns:xlink="http://www.w3.org/1999/xlink" x="0px" y="0px"
	 width="1280px" height="500px" viewBox="0 0 1280 500" enable-background="new 0 0 1280 500" xml:space="preserve">
<g>
	<path fill-rule="evenodd" clip-rule="evenodd" fill="#FFFFFF" d="M583.605,268.982c-4.765,2.34-8.72,1.14-12.029-2.979
		c-1.127,4.455-1.834,8.527-3.205,12.362c-1.924,5.382-5.684,5.882-9.111,1.229c-3.896-5.29-5.009-11.679-5.126-17.972
		c-0.161-8.635-3.083-15.706-8.79-22.123c-6.704-7.539-7.223-17.555-2.106-26.478c5.165-9.008,12.78-13.504,21.119-12.135
		c7.778,1.277,14.104,5.622,20.453,9.98c1.81,1.241,4.108,5.106,5.86,2.791c2.116-2.796-2.574-3.636-4.064-5.505
		c-0.984-1.232-3.57-1.535-3.257-3.336c0.351-2.013,2.782-2.191,4.503-2.461c9.299-1.456,17.642,0.424,23.729,8.104
		c1.785,2.254,2.373,2.2,4.313,0.242c6.102-6.162,11.369-4.679,13.688,3.765c0.405,1.479,1.212,1.147,2.083,1.393
		c5.289,1.484,7.421,5.222,5.328,10.056c-0.775,1.793-0.436,2.319,0.838,3.563c3.93,3.842,2.272,10.164-2.964,12.001
		c-0.618,0.217-1.304,0.287-1.964,0.327c-7.561,0.46-14.447,1.334-17.389,10.363c-1.244,3.817-5.777,6.072-10.021,6.725
		c-3.715,0.572-4.749,2.6-5.181,5.876c-0.654,4.966-2.001,9.789-4.508,14.18c-0.988,1.728-2.195,3.672-4.461,3.558
		c-2.552-0.128-4.27-1.895-5.067-4.24C585.263,275.296,584.525,272.229,583.605,268.982z"/>
	<path fill-rule="evenodd" clip-rule="evenodd" fill="#00ADB5" d="M583.821,240.166c0.022-9.248,7.241-16.489,16.392-16.442
		c9.045,0.047,16.58,7.511,16.595,16.437c0.015,8.82-7.731,16.554-16.579,16.554C591.179,256.713,583.799,249.271,583.821,240.166z"
		/>
	<path fill-rule="evenodd" clip-rule="evenodd" fill="#00ADB5" d="M624.412,239.947c-2.533,0.244-4.091-0.312-4.477-3.3
		c-0.693-5.361-3.387-9.754-7.891-12.748c-2.023-1.346-1.876-2.299-0.447-3.8c2.637-2.769,5.174-5.633,7.844-8.367
		c1.43-1.463,3.294-1.604,5.098-0.819s2.027,2.155,1.6,4.103c-0.701,3.188,0.692,4.474,4.139,4.16
		c3.732-0.341,5.669,2.775,3.5,5.744c-2.252,3.085-2.92,5.213,1.315,6.763c1.476,0.541,1.898,1.741,1.775,3.208
		c-0.163,1.954-1.509,3.092-3.137,3.476C630.671,239.088,627.523,239.44,624.412,239.947z"/>
	<path fill-rule="evenodd" clip-rule="evenodd" fill="#00ADB5" d="M576.173,237.545c2.813-0.482,3.814,0.55,3.875,3.475
		c0.117,5.741,2.529,10.596,6.949,14.29c1.932,1.614,2.338,2.896,0.324,4.748c-1.941,1.784-3.559,3.921-5.501,5.703
		c-1.439,1.32-3.301,1.544-5.11,0.649c-1.867-0.924-1.733-2.349-1.27-4.197c0.73-2.909-0.779-4.493-3.746-4.157
		c-1.842,0.208-3.316-0.006-4.271-1.665c-1.085-1.886-0.443-3.477,0.999-4.901c2.39-2.358,1.485-4.243-1.136-5.371
		c-1.787-0.77-2.756-1.664-2.467-3.661c0.301-2.079,1.565-3.28,3.519-3.663C570.932,238.285,573.56,237.953,576.173,237.545z"/>
</g>
</svg>
