<?xml version="1.0" encoding="utf-8"?>
<!-- Generator: Adobe Illustrator 16.0.0, SVG Export Plug-In . SVG Version: 6.00 Build 0)  -->
<!DOCTYPE svg PUBLIC "-//W3C//DTD SVG 1.1//EN" "http://www.w3.org/Graphics/SVG/1.1/DTD/svg11.dtd">
<svg version="1.1" id="Capa_1" xmlns="http://www.w3.org/2000/svg" xmlns:xlink="http://www.w3.org/1999/xlink" x="0px" y="0px"
	 width="1280px" height="500px" viewBox="0 0 1280 500" enable-background="new 0 0 1280 500" xml:space="preserve">
<g>
	<path fill-rule="evenodd" clip-rule="evenodd" fill="#FFFFFF" d="M587.507,171.205c6.947-4.644,17.869-4.134,25.371,0.854
		c8.211,5.458,10.743,13.922,7.982,22.33c-3.016,9.186-2.127,16.703,1.422,25.495c5.104,12.646,4.881,26.344,2.988,39.843
		c-0.918,6.537-5.98,9.225-11.275,11.521c-7.439,3.229-15.428,4.074-23.367,4.521c-11.806,0.668-23.612,0.357-35.04-3.32
		c-10.735-3.455-13.078-6.613-14.218-17.688c-1.578-15.357-0.101-30.207,7.014-44.112c1.436-2.805-0.618-3.976-1.65-5.605
		c-9.096-14.37-0.416-35.299,15.914-38.256c4.631-0.839,8.898,0.486,13.08,2.184c6.072,2.464,11.328,6.253,16.467,10.25
		c1.122,0.872,2.582,3.09,4.088,0.957c1.318-1.869-0.828-2.871-2.078-3.859C592.132,174.679,590.005,173.107,587.507,171.205z"/>
	<path fill-rule="evenodd" clip-rule="evenodd" fill="#00ADB5" d="M546.302,237.306c1.314-8.126,2.119-16.4,6.739-24.073
		c3.288,4.617,4.311,9.423,4.454,14.459c0.152,5.361,1.149,10.565,2.625,15.691c0.743,2.582,1.864,5.002,3.801,6.937
		c3.358,3.357,6.693,2.727,8.541-1.667c2.35-5.583,2.653-11.641,3.922-17.475c0.247-1.134,0.365-2.309,0.736-3.399
		c1.007-2.956,1.656-6.775,5.728-6.436c3.791,0.316,4.702,3.987,5.228,7.073c0.781,4.577,0.753,9.3,1.637,13.851
		c0.807,4.157,1.51,9.532,6.862,9.737c4.786,0.184,5.619-4.935,7.045-8.549c2.212-5.607,2.924-11.577,3.886-17.48
		c0.801-4.922,1.952-9.716,5.656-13.885c4.013,5.808,5.739,11.958,6.313,18.714c-2.76,0.016-1.666-4.114-4.035-3.155
		c-1.937,0.785-3.652,3.037-4.463,4.549c-1.182,2.206,3.074,2.77,3.93,5.264c0.474,1.383,2.18-0.118,2.578-1.521
		c0.255-0.9,0.658-1.542,1.674-1.421c1.378,0.163,1.312,1.303,1.365,2.269c0.399,7.158,0.408,14.315-0.268,21.459
		c-0.318,3.371-2.592,5.252-5.297,6.768c-5.031,2.814-10.541,4.117-16.191,4.668c-13.457,1.314-26.912,1.682-40.185-1.617
		c-7.218-1.795-12.543-5.412-12.28-13.891c-0.553-1.795-0.191-3.637-0.266-5.456c-0.133-3.281,0.357-5.795,4.352-2.958
		c1.393,0.988,2.125,0.067,2.955-0.75c0.646-0.636,1.025-1.42,0.31-2.165c-0.746-0.777-1.262-1.832-2.843-1.438
		C545.917,242.627,545.896,242.544,546.302,237.306z"/>
	<path fill-rule="evenodd" clip-rule="evenodd" fill="#FFFFFF" d="M546.302,237.306c0.531,1.495-0.809,3.678,1.023,4.53
		c2.053,0.955,2.133-1.271,2.887-2.44c1.039-1.613,2.21-1.215,3.023,0.259c0.524,0.951,0.404,2.104,1.934,2.542
		c2.544,0.729,2.469,2.095,0.092,3.046c-1.07,0.429-1.463,1.008-1.872,2c-0.884,2.146-2.276,2.504-3.41,0.229
		c-0.653-1.31-1.169-2.573-2.819-1.877c-1.328,0.562-0.809,2.015-0.85,3.105c-0.068,1.821-0.012,3.649-0.008,5.473
		C544.977,248.551,544.983,242.928,546.302,237.306z"/>
	<path fill-rule="evenodd" clip-rule="evenodd" fill="#FFFFFF" d="M585.527,248.377c0.338,0.215,1.391,0.632,1.354,0.898
		c-0.78,5.656,6.2,4.419,7.191,8.158c0.401,1.512-1.369,2.67-3.009,2.615c-2.544-0.086-3.67,0.834-3.498,3.465
		c0.096,1.465-0.674,2.641-2.324,2.672c-1.934,0.037-2.705-1.303-2.568-2.959c0.244-2.973-1.589-3.1-3.751-3.215
		c-1.483-0.078-2.415-1-2.459-2.609c-0.038-1.391,0.714-2.369,1.966-2.484c2.846-0.262,4.644-1.154,4.378-4.51
		C582.712,249.207,583.874,248.424,585.527,248.377z"/>
</g>
</svg>
