<?xml version="1.0" encoding="utf-8"?>
<!-- Generator: Adobe Illustrator 16.0.0, SVG Export Plug-In . SVG Version: 6.00 Build 0)  -->
<!DOCTYPE svg PUBLIC "-//W3C//DTD SVG 1.1//EN" "http://www.w3.org/Graphics/SVG/1.1/DTD/svg11.dtd">
<svg version="1.1" id="Capa_1" xmlns="http://www.w3.org/2000/svg" xmlns:xlink="http://www.w3.org/1999/xlink" x="0px" y="0px"
	 width="1280px" height="500px" viewBox="0 0 1280 500" enable-background="new 0 0 1280 500" xml:space="preserve">
<g>
	<path fill-rule="evenodd" clip-rule="evenodd" fill="#FFFFFF" d="M589.713,240.83c5.579-4.93,17.64-4.342,24.653,1.039
		c6.287,4.821,8.545,11.406,7.596,18.966c-0.855,6.832-3.181,13.152-7.992,18.455c-3.832,4.223-4.867,9.719-5.653,15.195
		c-0.944,6.587-1.991,13.155-5.077,19.161c-1.047,2.036-2.025,4.576-4.836,4.423c-2.998-0.164-4.623-2.416-5.593-5.045
		c-2.031-5.501-2.177-11.337-2.753-17.461c-3.749,1.91-7.254,3.614-10.676,5.475c-1.676,0.912-1.449,2.881-1.893,4.422
		c-0.87,3.024-1.312,6.197-2.421,9.122c-1.759,4.64-5.579,5.072-8.683,1.088c-2.182-2.8-3.496-6.106-3.94-9.587
		c-0.361-2.823-1.489-4.293-4.257-5.304c-14.859-5.424-23.711-25.199-12.797-39.84c1.259-1.688,1.492-3.647,1.965-5.573
		c4.033-16.412,18.475-23.19,33.485-15.679c4.624,2.313,8.853,5.259,12.923,8.452c1.166,0.914,2.673,3.037,4.123,1.006
		c1.351-1.893-1.095-2.799-2.222-3.785C593.804,243.73,591.73,242.344,589.713,240.83z"/>
	<path fill-rule="evenodd" clip-rule="evenodd" fill="#00ADB5" d="M566.57,299.597c-8.029-0.209-15.935-4.529-20.288-13.834
		c-3.753-8.021-3.567-16.139,2.12-23.518c4.797-6.225,14.605-8.981,21.612-6.117c7.214,2.949,11.241,9.734,10.396,17.519
		c-0.611,5.623-5.706,10.845-11.406,11.688c-5.781,0.855-11.012-1.909-13.03-6.942c-0.536-1.337-1.54-3.07,0.315-3.893
		c1.394-0.617,3.408-0.9,4.438,0.977c1.747,3.186,3.891,5.444,7.925,4.179c4.005-1.257,6.009-4.303,6.223-8.199
		c0.237-4.317-1.872-7.741-5.796-9.688c-8.344-4.139-19.504,3.447-19.738,13.333c-0.322,13.65,13.82,22.813,27.299,17.517
		c8.669-3.406,14.304-9.646,15.65-19.056c0.407-2.843,1.48-3.867,4.131-3.425c2.97,0.496,1.852,2.758,1.586,4.332
		C595.564,288.932,583.208,299.484,566.57,299.597z"/>
</g>
</svg>
