<?xml version="1.0" encoding="utf-8"?>
<!-- Generator: Adobe Illustrator 22.1.0, SVG Export Plug-In . SVG Version: 6.00 Build 0)  -->
<svg version="1.1" id="Capa_1" xmlns="http://www.w3.org/2000/svg" xmlns:xlink="http://www.w3.org/1999/xlink" x="0px" y="0px"
	 width="100px" height="100px" viewBox="0 0 100 100" style="enable-background:new 0 0 100 100;" xml:space="preserve">
<style type="text/css">
	.st0{fill:#FFFFFF;}
</style>
<g>
	<path class="st0" d="M13.9,45.1c8.1,0,15.4,0.1,22.7,0c2.9-0.1,3.3,1.5,3.2,3.8c-0.3,4.4,1.9,6,6.1,5.7c1.8-0.1,3.7-0.1,5.5,0
		c4,0.3,6.1-1.4,5.7-5.5c-0.3-3.1,0.9-4,4-3.9c7.6,0.2,15.3,0.1,22.8,0.1c0.9,1.6-0.2,2.5-0.9,3.2c-6.2,6.3-7.7,14.4-8.9,22.8
		c-0.9,5.9-2,11.8-5,17.1c-1.2,2.2-2.5,4.7-5.4,4.5c-2.8-0.2-4.2-2.4-5.3-4.8c-2.4-5.4-2.2-11.4-3.1-17.1c-0.2-1.1,0.1-2.4-0.3-3.5
		c-1-2.8-1.6-6.2-5.5-6.2c-3.5,0-4.6,3-5.3,5.8c-1.5,6.3-2.5,12.7-4,19c-0.7,3-1.4,6.8-5.3,7c-3.8,0.2-5.6-3-7.1-6.2
		c-2.3-5.1-3.5-10.5-3.6-15.9C24,61.9,21.7,54,15.3,47.6C14.9,47.2,14.7,46.5,13.9,45.1z"/>
	<path class="st0" d="M72.8,36.2c-4,0-8-0.2-12,0.1c-3.2,0.2-4.2-1-3.9-4c0.2-1.6,0-3.3,0-5c0.1-3.5-1.7-5.2-5.2-5.2c-1,0-2,0-3,0
		c-8.9,0-9.2,0.1-9,8.9c0.1,4.1-0.9,5.6-5.2,5.3c-7.1-0.4-14.3-0.3-21.5,0c-3.4,0.1-4.3-1.2-4.3-4.3c0-11.4,5.9-19.3,15.2-24.6
		c7.9-4.5,15.5-1.1,22.7,2.6c4.8,2.4,9,5.6,13.2,8.9c1,0.8,2.1,2,3.4,0.5c1.2-1.5-0.1-2.4-1.1-3.3c-1.5-1.3-3.2-2.4-4.7-3.6
		c-1-0.8-2.8-1.2-2.2-2.8C55.6,8.8,57,8,58.1,7.8c8.9-2.4,17.2-1,24.4,4.9c6.6,5.3,7.1,12.8,6.4,20.5c-0.2,2.2-1.3,3.2-3.6,3.1
		C81.1,36.1,77,36.2,72.8,36.2z"/>
</g>
</svg>
