<?xml version="1.0" encoding="utf-8"?>
<!-- Generator: Adobe Illustrator 22.1.0, SVG Export Plug-In . SVG Version: 6.00 Build 0)  -->
<svg version="1.1" id="Capa_1" xmlns="http://www.w3.org/2000/svg" xmlns:xlink="http://www.w3.org/1999/xlink" x="0px" y="0px"
	 width="100px" height="100px" viewBox="0 0 100 100" style="enable-background:new 0 0 100 100;" xml:space="preserve">
<style type="text/css">
	.st0{fill:#FFFFFF;}
	.st1{fill:#00ADB5;}
</style>
<g>
	<path class="st0" d="M44.1,75.8c-4.5,2.2-8.2,1.1-11.4-2.8c-1.1,4.2-1.7,8.1-3,11.7c-1.8,5.1-5.4,5.6-8.6,1.2c-3.7-5-4.7-11-4.8-17
		c-0.2-8.2-2.9-14.8-8.3-20.9c-6.3-7.1-6.8-16.6-2-25c4.9-8.5,12.1-12.8,20-11.5c7.3,1.2,13.3,5.3,19.3,9.4c1.7,1.2,3.9,4.8,5.5,2.6
		c2-2.6-2.4-3.4-3.8-5.2c-0.9-1.2-3.4-1.5-3.1-3.2c0.3-1.9,2.6-2.1,4.3-2.3c8.8-1.4,16.7,0.4,22.4,7.7c1.7,2.1,2.2,2.1,4.1,0.2
		c5.8-5.8,10.7-4.4,12.9,3.6c0.4,1.4,1.1,1.1,2,1.3c5,1.4,7,4.9,5,9.5c-0.7,1.7-0.4,2.2,0.8,3.4c3.7,3.6,2.1,9.6-2.8,11.3
		c-0.6,0.2-1.2,0.3-1.9,0.3c-7.1,0.4-13.6,1.3-16.4,9.8c-1.2,3.6-5.5,5.7-9.5,6.4c-3.5,0.5-4.5,2.5-4.9,5.6
		c-0.6,4.7-1.9,9.2-4.3,13.4c-0.9,1.6-2.1,3.5-4.2,3.4c-2.4-0.1-4-1.8-4.8-4C45.6,81.7,44.9,78.8,44.1,75.8z"/>
	<path class="st1" d="M44.3,48.5c0-8.7,6.8-15.6,15.5-15.5c8.5,0,15.7,7.1,15.7,15.5c0,8.3-7.3,15.6-15.7,15.6
		C51.2,64.2,44.2,57.1,44.3,48.5z"/>
	<path class="st1" d="M82.6,48.3c-2.4,0.2-3.9-0.3-4.2-3.1c-0.7-5.1-3.2-9.2-7.5-12c-1.9-1.3-1.8-2.2-0.4-3.6
		c2.5-2.6,4.9-5.3,7.4-7.9c1.4-1.4,3.1-1.5,4.8-0.8s1.9,2,1.5,3.9c-0.7,3,0.7,4.2,3.9,3.9c3.5-0.3,5.4,2.6,3.3,5.4
		c-2.1,2.9-2.8,4.9,1.2,6.4c1.4,0.5,1.8,1.6,1.7,3c-0.2,1.8-1.4,2.9-3,3.3C88.5,47.5,85.5,47.9,82.6,48.3z"/>
	<path class="st1" d="M37,46.1c2.7-0.5,3.6,0.5,3.7,3.3c0.1,5.4,2.4,10,6.6,13.5c1.8,1.5,2.2,2.7,0.3,4.5c-1.8,1.7-3.4,3.7-5.2,5.4
		c-1.4,1.2-3.1,1.5-4.8,0.6c-1.8-0.9-1.6-2.2-1.2-4c0.7-2.7-0.7-4.2-3.5-3.9c-1.7,0.2-3.1,0-4-1.6c-1-1.8-0.4-3.3,0.9-4.6
		c2.3-2.2,1.4-4-1.1-5.1c-1.7-0.7-2.6-1.6-2.3-3.5c0.3-2,1.5-3.1,3.3-3.5C32.1,46.8,34.6,46.5,37,46.1z"/>
</g>
</svg>
