<?xml version="1.0" encoding="utf-8"?>
<!-- Generator: Adobe Illustrator 22.1.0, SVG Export Plug-In . SVG Version: 6.00 Build 0)  -->
<svg version="1.1" id="Capa_1" xmlns="http://www.w3.org/2000/svg" xmlns:xlink="http://www.w3.org/1999/xlink" x="0px" y="0px"
	 width="100px" height="100px" viewBox="0 0 100 100" style="enable-background:new 0 0 100 100;" xml:space="preserve">
<style type="text/css">
	.st0{fill:#FFFFFF;}
	.st1{fill:#00ADB5;}
</style>
<g>
	<path class="st0" d="M58.3,11.8c5.8-5.1,18.2-4.5,25.4,1.1c6.5,5,8.8,11.8,7.8,19.6c-0.9,7.1-3.3,13.6-8.2,19c-4,4.4-5,10-5.8,15.7
		c-1,6.8-2.1,13.6-5.2,19.8c-1.1,2.1-2.1,4.7-5,4.6c-3.1-0.2-4.8-2.5-5.8-5.2c-2.1-5.7-2.2-11.7-2.8-18c-3.9,2-7.5,3.7-11,5.7
		c-1.7,0.9-1.5,3-2,4.6c-0.9,3.1-1.4,6.4-2.5,9.4c-1.8,4.8-5.8,5.2-9,1.1c-2.3-2.9-3.6-6.3-4.1-9.9c-0.4-2.9-1.5-4.4-4.4-5.5
		c-15.3-5.6-24.5-26-13.2-41.1c1.3-1.7,1.5-3.8,2-5.8C18.8,9.9,33.7,2.9,49.2,10.6c4.8,2.4,9.1,5.4,13.3,8.7c1.2,0.9,2.8,3.1,4.3,1
		c1.4-2-1.1-2.9-2.3-3.9C62.5,14.8,60.4,13.4,58.3,11.8z"/>
	<path class="st1" d="M34.4,72.5c-8.3-0.2-16.4-4.7-20.9-14.3c-3.9-8.3-3.7-16.7,2.2-24.3c5-6.4,15.1-9.3,22.3-6.3
		c7.4,3,11.6,10,10.7,18.1c-0.6,5.8-5.9,11.2-11.8,12.1c-6,0.9-11.4-2-13.4-7.2c-0.6-1.4-1.6-3.2,0.3-4c1.4-0.6,3.5-0.9,4.6,1
		c1.8,3.3,4,5.6,8.2,4.3c4.1-1.3,6.2-4.4,6.4-8.5c0.2-4.5-1.9-8-6-10c-8.6-4.3-20.1,3.6-20.4,13.8c-0.3,14.1,14.3,23.5,28.2,18.1
		c8.9-3.5,14.8-10,16.2-19.7c0.4-2.9,1.5-4,4.3-3.5c3.1,0.5,1.9,2.8,1.6,4.5C64.4,61.5,51.6,72.4,34.4,72.5z"/>
</g>
</svg>
