<?xml version="1.0" encoding="utf-8"?>
<!-- Generator: Adobe Illustrator 22.1.0, SVG Export Plug-In . SVG Version: 6.00 Build 0)  -->
<svg version="1.1" id="Capa_1" xmlns="http://www.w3.org/2000/svg" xmlns:xlink="http://www.w3.org/1999/xlink" x="0px" y="0px"
	 width="100px" height="100px" viewBox="0 0 100 100" style="enable-background:new 0 0 100 100;" xml:space="preserve">
<style type="text/css">
	.st0{fill:#FFFFFF;}
	.st1{fill:#00ADB5;}
</style>
<g>
	<path class="st0" d="M51.7,12.2c5.4-3.6,13.8-3.2,19.7,0.7c6.4,4.2,8.3,10.8,6.2,17.3c-2.3,7.1-1.6,12.9,1.1,19.8
		c4,9.8,3.8,20.4,2.3,30.9c-0.7,5.1-4.6,7.1-8.7,8.9c-5.8,2.5-12,3.2-18.1,3.5C45,93.8,35.9,93.6,27,90.7C18.7,88,16.9,85.6,16,77
		c-1.2-11.9-0.1-23.4,5.4-34.2c1.1-2.2-0.5-3.1-1.3-4.3c-7-11.1-0.3-27.4,12.3-29.6c3.6-0.7,6.9,0.4,10.1,1.7
		c4.7,1.9,8.8,4.8,12.8,7.9c0.9,0.7,2,2.4,3.2,0.7c1-1.4-0.6-2.2-1.6-3C55.3,14.9,53.7,13.7,51.7,12.2z"/>
	<path class="st1" d="M19.8,63.5c1-6.3,1.6-12.7,5.2-18.7c2.5,3.6,3.3,7.3,3.5,11.2c0.1,4.2,0.9,8.2,2,12.2c0.6,2,1.4,3.9,2.9,5.4
		c2.6,2.6,5.2,2.1,6.6-1.3c1.8-4.3,2.1-9,3-13.5c0.2-0.9,0.3-1.8,0.6-2.6c0.8-2.3,1.3-5.3,4.4-5c2.9,0.2,3.6,3.1,4.1,5.5
		c0.6,3.5,0.6,7.2,1.3,10.7c0.6,3.2,1.2,7.4,5.3,7.5c3.7,0.1,4.4-3.8,5.5-6.6c1.7-4.3,2.3-9,3-13.5c0.6-3.8,1.5-7.5,4.4-10.8
		c3.1,4.5,4.4,9.3,4.9,14.5c-2.1,0-1.3-3.2-3.1-2.4c-1.5,0.6-2.8,2.4-3.5,3.5c-0.9,1.7,2.4,2.1,3,4.1c0.4,1.1,1.7-0.1,2-1.2
		c0.2-0.7,0.5-1.2,1.3-1.1c1.1,0.1,1,1,1.1,1.8c0.3,5.5,0.3,11.1-0.2,16.6c-0.2,2.6-2,4.1-4.1,5.2c-3.9,2.2-8.2,3.2-12.5,3.6
		c-10.4,1-20.9,1.3-31.1-1.3c-5.6-1.4-9.7-4.2-9.5-10.8c-0.4-1.4-0.1-2.8-0.2-4.2c-0.1-2.5,0.3-4.5,3.4-2.3c1.1,0.8,1.6,0.1,2.3-0.6
		c0.5-0.5,0.8-1.1,0.2-1.7c-0.6-0.6-1-1.4-2.2-1.1C19.5,67.6,19.5,67.5,19.8,63.5z"/>
	<path class="st0" d="M19.8,63.5c0.4,1.2-0.6,2.9,0.8,3.5c1.6,0.7,1.7-1,2.2-1.9c0.8-1.3,1.7-0.9,2.3,0.2c0.4,0.7,0.3,1.6,1.5,2
		c2,0.6,1.9,1.6,0.1,2.4c-0.8,0.3-1.1,0.8-1.5,1.5c-0.7,1.7-1.8,1.9-2.6,0.2c-0.5-1-0.9-2-2.2-1.5c-1,0.4-0.6,1.6-0.7,2.4
		c-0.1,1.4,0,2.8,0,4.2C18.8,72.2,18.8,67.8,19.8,63.5z"/>
	<path class="st0" d="M50.2,72.1c0.3,0.2,1.1,0.5,1,0.7c-0.6,4.4,4.8,3.4,5.6,6.3c0.3,1.2-1.1,2.1-2.3,2c-2-0.1-2.8,0.6-2.7,2.7
		c0.1,1.1-0.5,2-1.8,2.1c-1.5,0-2.1-1-2-2.3c0.2-2.3-1.2-2.4-2.9-2.5c-1.1-0.1-1.9-0.8-1.9-2c0-1.1,0.6-1.8,1.5-1.9
		c2.2-0.2,3.6-0.9,3.4-3.5C48,72.7,48.9,72.1,50.2,72.1z"/>
</g>
</svg>
