<?xml version="1.0" encoding="utf-8"?>
<!-- Generator: Adobe Illustrator 22.1.0, SVG Export Plug-In . SVG Version: 6.00 Build 0)  -->
<svg version="1.1" id="Capa_1" xmlns="http://www.w3.org/2000/svg" xmlns:xlink="http://www.w3.org/1999/xlink" x="0px" y="0px"
	 width="100px" height="100px" viewBox="0 0 100 100" style="enable-background:new 0 0 100 100;" xml:space="preserve">
<style type="text/css">
	.st0{fill:#FFFFFF;}
	.st1{fill:#00ADB5;}
</style>
<g>
	<path class="st0" d="M87,31.7c-0.2,6.6-2.2,13.5-7.4,19.4c-4.8,5.5-5.6,12.5-6.7,19.3c-0.8,5.1-1.9,10.2-4.1,14.9
		c-1.1,2.3-2.2,5-5.4,4.8c-3.1-0.2-4.3-2.7-5.2-5.1c-1.6-4.6-2.1-9.4-2.3-14.2c-0.1-2.2-0.3-4.4-1.4-6.5c-1-1.8-2.1-3.4-4.5-3.3
		c-2.2,0.1-3.2,1.7-4,3.4c-1.8,4-1.9,8.4-2.8,12.6c-0.7,3-1.4,6-2.2,9c-0.6,2-1.5,4.3-3.8,4.5c-2.5,0.3-4.3-1.4-5.7-3.5
		c-3-4.9-4.3-10.4-4.4-15.9c-0.3-9.2-3.2-16.8-9.2-23.9C7,34.2,14.9,12.7,31.2,9.7c6.1-1.1,11.7,1,17,3.9c2.4,1.3,3.9,1.2,6.5-0.3
		c7.4-4.5,15.2-3.3,22.6,0.4C84.1,17.1,87,23.1,87,31.7z"/>
	<path class="st1" d="M55.4,16.2c3.5-3.1,7.5-2.7,11.5-2.6c1.6,0,1.7,1.1,1.7,2.3c0,8.1,0,16.3,0,24.4c0,1.8-0.7,2.4-2.4,2.4
		c-10.9,0-21.7-0.1-32.6,0c-2.1,0-2.4-1-2.4-2.7c0-8.4,0.1-16.8,0-25.2c0-2.2,1-2.8,2.9-2.7c4.8,0.3,9.2,1.8,13.3,4.1
		c4.3,2.4,8.4,5.2,12.2,8.3c1.3,1,2.7,2.3,4.1,0.5c1.1-1.5-0.3-2.7-1.5-3.7C60,19.7,57.9,18.1,55.4,16.2z"/>
</g>
</svg>
