<?xml version="1.0" encoding="utf-8"?>
<!-- Generator: Adobe Illustrator 22.1.0, SVG Export Plug-In . SVG Version: 6.00 Build 0)  -->
<svg version="1.1" id="Capa_1" xmlns="http://www.w3.org/2000/svg" xmlns:xlink="http://www.w3.org/1999/xlink" x="0px" y="0px"
	 width="100px" height="100px" viewBox="0 0 100 100" style="enable-background:new 0 0 100 100;" xml:space="preserve">
<style type="text/css">
	.st0{fill:#FFFFFF;}
	.st1{fill:#00ADB5;}
</style>
<g>
	<path class="st0" d="M32.7,29.1c3.7,0.1,7,1.2,10.1,3c2.4,1.4,4,1.2,5.9-0.9c7.7-7.9,15.6-15.6,23.4-23.4c3.4-3.4,5.9-3.7,8.4-1.3
		c2.6,2.4,2.2,5.3-1.2,8.8c-4.5,4.5-9,9.1-13.6,13.6c-1.2,1.2-2.1,1.8,0.3,3.1c7.7,4,10.4,10.4,8.5,19.2c-0.9,4.3-2.5,8.3-5.6,11.6
		c-4.2,4.6-4.4,10.7-5.5,16.4c-0.8,4-1.5,8-3.5,11.6c-0.8,1.5-1.6,3.4-3.8,3.2c-2.3-0.2-3.4-1.9-4.3-3.9c-1.7-4-1.5-8.3-2.2-12.4
		c-0.1-0.7,0-1.4-0.2-2c-0.4-2.4-1.5-4.8-3.9-5.2c-2.7-0.4-3.6,2.2-4.1,4.3c-1,4.1-1.7,8.2-2.5,12.3c-0.2,1.2-0.6,2.4-1,3.5
		c-0.6,1.5-1.2,3.3-3,3.5c-2.1,0.2-3.6-1.2-4.6-2.9c-2.5-4-3.5-8.6-3.6-13.2c-0.2-6.9-2.3-12.8-7-18.1c-5-5.6-6.1-12.5-2.5-19.4
		C20.4,34.4,24.8,29.2,32.7,29.1z"/>
	<path class="st1" d="M43.7,45.7c-1.4-0.1-2.6,0.3-3.1-0.7c-0.7-1.1,0.5-1.7,1.1-2.3c11-10.9,22.1-21.8,33.1-32.7
		c1-1,2.2-2.1,3.5-0.8c1.5,1.5-0.2,2.4-1,3.3c-3.5,3.6-7.1,7.1-10.7,10.7c-3.7,3.7-7.3,7.4-9.8,12.2C54,40.7,49.4,44.6,43.7,45.7z"
		/>
</g>
</svg>
