<?xml version="1.0" encoding="utf-8"?>
<!-- Generator: Adobe Illustrator 22.1.0, SVG Export Plug-In . SVG Version: 6.00 Build 0)  -->
<svg version="1.1" xmlns="http://www.w3.org/2000/svg" xmlns:xlink="http://www.w3.org/1999/xlink" x="0px" y="0px" width="200px"
	 height="55px" viewBox="0 0 200 55" style="enable-background:new 0 0 200 55;" xml:space="preserve">
<style type="text/css">
	.st0{display:none;}
	
		.st1{display:inline;fill:#4F7DAA;stroke:#FFFFFF;stroke-width:0.75;stroke-linecap:round;stroke-linejoin:round;stroke-miterlimit:10;}
	.st2{fill:#FFFFFF;stroke:#FFFFFF;stroke-miterlimit:10;}
	.st3{display:inline;fill:none;}
	.st4{display:inline;}
	.st5{fill:#FFFFFF;}
	.st6{font-family:'Corbel-Bold';}
	.st7{font-size:12px;}
	.st8{display:inline;fill:#FFFFFF;}
	.st9{font-size:8px;}
	.st10{letter-spacing:1;}
	.st11{display:inline;fill:#FFFFFF;stroke:#FFFFFF;stroke-width:0.25;stroke-miterlimit:10;}
	.st12{font-family:'Lato-Bold';}
	.st13{font-size:9.938px;}
	.st14{letter-spacing:2.2;}
	.st15{font-family:'BebasNeueBold';}
	.st16{font-size:22.8285px;}
	.st17{fill:#FFFFFF;stroke:#FFFFFF;stroke-width:0.25;stroke-miterlimit:10;}
</style>
<g id="Layer_3" class="st0">
	<rect x="-130" y="-118.5" class="st1" width="345" height="250"/>
</g>
<g id="Layer_2">
	<path class="st2" d="M88.8,22.5c-2.8-1.9-6.9-1.6-9-0.7c-2.1-1-6-1.7-9-0.1c-1.7,0.9-3.8,3-3.9,7.6c0,1.5,0.1,2.9,0.3,4.3
		c-0.1,0.7-0.5,1.9-1,2.2c-0.1,0.1-0.2,0.1-0.4,0c-0.2,0-0.4,0-0.5,0c-0.4-0.4-0.7-1.1-0.9-2c-0.1-0.6-0.2-0.9-0.3-1.5
		c-0.2-1.8-0.1-3.8,0-5.2c0,0,0,0,0,0c0.4-2,0.7-4.2,0.9-6.5c0.3-6.5-2.5-9.6-5-11.1c-2.6-1.5-5.7-1.8-8.5-1.5
		c-1.1-1.4-2.9-2.3-5-2.3c-2,0-3.8,1-5,2.4c-2.8-0.2-5.9,0.2-8.5,1.7c-2.5,1.5-5.3,4.6-5,10.9c0.1,2.3,0.4,4.4,0.9,6.4c0,0,0,0,0,0
		c0.2,1.2,0.4,2.9,0.3,4.4c-0.1,1-0.2,1.5-0.3,2.5c-0.2,0.6-0.4,1.1-0.7,1.4c-0.2-0.1-0.3-0.1-0.5,0c-0.2,0-0.3,0-0.4,0
		c-0.5-0.3-0.9-1.4-1-2.2c0.2-1.3,0.3-2.7,0.3-4.1c0-4.4-2.1-6.4-3.8-7.3c-3-1.6-7-0.9-9,0.1c-2.2-0.8-6.2-1.1-9,0.7
		c-1.6,1.1-3.5,3.2-3.2,7.5c0.1,1.5,0.4,2.8,0.7,4.1c-0.1,1.1-0.6,4.9-0.3,6.2c0.1,0.4,0.5,0.7,0.9,0.7c0.1,0,0.1,0,0.2,0
		c0.5-0.1,0.8-0.6,0.7-1.1c-0.1-0.3-0.1-0.9-0.1-1.6c1.8,3.9,3.9,6.2,4,6.3c0.1,0.1,0.1,0.1,0.1,0.2c0.5,0.6,1.5,1.8,3.1,1.5
		c1.6-0.3,1.6-1.8,1.6-2.9c0-0.4,0-0.9,0-1.3c0.1-0.9,1.2-1.8,1.9-2.2c0.8,0.5,1.9,1.3,2.1,2.1c0.1,0.4,0.1,0.9,0.2,1.3
		c0.1,1.1,0.2,2.6,1.8,2.8c0.1,0,0.3,0,0.4,0c1.4,0,2.2-1.1,2.6-1.7c0-0.1,0.1-0.1,0.1-0.1c0.1-0.2,2.5-3.2,3.9-8.1
		c0.2,0.2,0.4,0.4,0.6,0.6c0.4,0.3,0.8,0.4,1.3,0.4c0.2,0,0.4,0,0.6-0.1c0,0,0.1,0,0.1-0.1c0.1,0.1,0.3,0.1,0.4,0.1
		c0.2,0,0.4-0.1,0.6-0.2c0.9-0.7,1.4-2,1.7-3.5c2.4,5.8,5.3,9.2,5.5,9.4c0.1,0.1,0.1,0.2,0.2,0.3c0.7,1,2,2.6,4.1,2.3
		c2-0.3,2.1-2.2,2.2-3.9c0-0.7,0-1.3,0.1-2c0.2-1.6,2.3-3.1,3.5-3.8c1.2,0.7,3.2,2.2,3.4,3.8c0.1,0.7,0.1,1.4,0.1,2.1
		c0.1,1.7,0.1,3.6,2.1,4c0.2,0,0.4,0,0.5,0c1.8,0,2.9-1.4,3.6-2.3c0.1-0.1,0.1-0.2,0.2-0.2c0.2-0.2,3.4-3.9,5.8-10.2
		c0.3,1.7,0.8,3.3,1.9,4.2c0.2,0.1,0.4,0.2,0.6,0.2c0.1,0,0.3,0,0.4-0.1c0,0,0.1,0.1,0.1,0.1c0.2,0.1,0.4,0.1,0.6,0.1
		c0.5,0,0.9-0.1,1.3-0.4c0.3-0.2,0.5-0.4,0.6-0.6c1.4,5.1,3.8,8.3,3.9,8.4c0,0.1,0.1,0.1,0.1,0.2c0.5,0.7,1.3,2,3,1.8
		c1.6-0.1,1.7-1.7,1.8-2.9c0-0.4,0.1-0.9,0.2-1.4c0.2-0.9,1.4-1.7,2.1-2.2c0.8,0.5,1.8,1.5,1.9,2.4c0,0.5,0,0.9,0,1.4
		c0,1.2,0,2.8,1.6,3.1c0.1,0,0.3,0,0.4,0.1c1.4,0.1,2.2-1,2.7-1.6c0-0.1,0.1-0.1,0.1-0.1c0.1-0.2,2.3-2.5,4.1-6.6
		c0,0.7,0,1.4-0.1,1.7c-0.1,0.5,0.2,1,0.7,1.1c0.1,0,0.1,0,0.2,0c0.4,0,0.8-0.3,1-0.7c0.3-1.4-0.1-5.5-0.2-6.6
		c0.3-1.3,0.6-2.8,0.7-4.4C92.3,25.9,90.5,23.6,88.8,22.5z M20.2,43.5c-0.1,0.1-0.1,0.1-0.1,0.2c-0.5,0.7-0.8,1-1.3,1
		c-0.1-0.2-0.1-0.8-0.2-1.2c0-0.4-0.1-1-0.2-1.5c-0.4-2.1-3.2-3.5-3.6-3.6c-0.3-0.1-0.6-0.1-0.8,0c-0.3,0.2-3,1.7-3.2,3.9
		c-0.1,0.5,0,1,0,1.5c0,0.4,0,1-0.1,1.2c0,0,0,0,0,0C10.2,45,9.9,44.7,9.3,44c-0.1-0.1-0.1-0.1-0.2-0.2c-0.1-0.1-5-5.3-5.7-13.6
		c-0.2-2.8,0.6-4.8,2.4-5.9c1.1-0.7,2.4-1,3.6-1.1c1.5-0.1,3,0.2,4,0.6c0.3,0.1,0.6,0.1,0.9,0c1.6-0.9,5.1-1.6,7.6-0.3
		c1.9,1,2.9,2.9,2.9,5.8C24.8,37.8,20.3,43.4,20.2,43.5z M59,11.2c0.2,0.1,0.4,0.2,0.5,0.4c-2.2,0.1-5.4,0.1-6.8-0.1
		c0-0.6-0.1-1.1-0.3-1.7C54.7,9.7,57.1,10.1,59,11.2z M46.5,7.6L46.5,7.6c-0.2,0-0.5,0.1-0.8,0.1C46,7.6,46.3,7.6,46.5,7.6z
		 M46.3,7.6c2.1,0,3.8,1.7,3.8,3.8c0,2.1-1.7,3.8-3.8,3.8c-2.1,0-3.8-1.7-3.8-3.8C42.5,9.3,44.2,7.6,46.3,7.6z M46.5,15.8L46.5,15.8
		c-0.2,0-0.4,0-0.6-0.1C46.1,15.8,46.4,15.8,46.5,15.8z M34.1,11.4c1.9-1.1,4.3-1.5,6.5-1.5c-0.2,0.5-0.3,1.1-0.3,1.7
		c-1.5,0.1-4.9,0.3-6.8,0.2C33.7,11.7,33.9,11.5,34.1,11.4z M63.1,20.6c-0.6,13.2-7.8,21.5-7.9,21.6c-0.1,0.1-0.1,0.2-0.2,0.3
		c-0.8,1-1.4,1.7-2.4,1.5c-0.4-0.1-0.5-0.3-0.6-2.2c0-0.7,0-1.4-0.2-2.2c-0.4-3.1-4.4-5.2-4.8-5.4c-0.1-0.1-0.3-0.1-0.4-0.1
		c-0.1,0-0.3,0-0.4,0.1c-0.5,0.2-4.4,2.3-4.9,5.4c-0.1,0.8-0.1,1.6-0.2,2.2c-0.1,1.8-0.2,2.1-0.6,2.2c-1,0.1-1.7-0.6-2.4-1.6
		c-0.1-0.1-0.1-0.2-0.2-0.3c-0.1-0.1-7.3-8.3-7.9-21.3c-0.1-3.1,0.5-5.6,1.9-7.4c0.1,0.1,0.3,0.2,0.5,0.2c0.7,0.1,2,0.1,3.4,0.1
		c1.8,0,3.8-0.1,4.8-0.2c0.8,2.4,3.2,4.2,6,4.2c2.8,0,5.2-1.8,6-4.3c0.8,0.1,1.9,0.1,3.2,0.1c2.5,0,5.3-0.1,5.5-0.1c0,0,0.1,0,0.1,0
		C62.6,15.1,63.2,17.5,63.1,20.6z M90.1,30.4c-0.7,8.9-5.7,14.3-5.8,14.4c-0.1,0.1-0.1,0.1-0.2,0.2c-0.6,0.7-0.9,1-1.4,0.9
		c-0.1-0.2-0.1-0.8-0.1-1.2c0-0.5,0-1,0-1.6c-0.2-2.3-2.9-3.9-3.2-4.1c-0.3-0.2-0.6-0.2-0.8,0c-0.3,0.1-3.2,1.5-3.6,3.7
		c-0.1,0.6-0.1,1.1-0.2,1.6c0,0.4-0.1,1-0.2,1.2c0,0,0,0,0,0c-0.5,0-0.8-0.3-1.3-1c-0.1-0.1-0.1-0.1-0.2-0.2c0-0.1-4.5-5.9-4.4-14.7
		c0-2.9,1-4.9,2.9-6c1.1-0.6,2.4-0.8,3.7-0.8c1.6,0.1,3,0.5,3.9,1c0.3,0.2,0.6,0.2,0.9,0c1.7-0.8,5.2-1.2,7.6,0.4
		C89.6,25.3,90.3,27.4,90.1,30.4z"/>
</g>
<g id="Layer_4">
</g>
<g id="Layer_5" class="st0">
	<rect x="98.5" y="3" class="st3" width="82" height="28"/>
	<text transform="matrix(1 0 0 1 98.5 11.4839)" class="st4"><tspan x="0" y="0" class="st5 st6 st7">DR.      ANDRÉS</tspan><tspan x="0" y="14.4" class="st5 st6 st7">ANTELO </tspan></text>
	<text transform="matrix(0.9786 0 0 1 98 36.25)" class="st8 st6 st9 st10">CLÍNICA DENTAL</text>
</g>
<g id="Layer_5_copy_2" class="st0">
	<text transform="matrix(0.897 0 0 1 96.5 51.958)" class="st11 st12 st13 st14">CLÍNICA DENTAL</text>
	<g>
		<path class="st8" d="M88.5,12.9V4.1h2.6c0.2,0,0.5,0,0.7,0c0.2,0,0.5,0,0.7,0.1c0.2,0,0.5,0.1,0.7,0.1c0.2,0,0.4,0.1,0.6,0.1
			c0.5,0.1,1,0.4,1.4,0.6c0.4,0.3,0.8,0.6,1,0.9s0.5,0.7,0.6,1.2C97,7.5,97.1,8,97.1,8.5c0,0.5-0.1,0.9-0.2,1.3s-0.3,0.8-0.5,1.1
			s-0.6,0.6-0.9,0.9c-0.4,0.3-0.8,0.5-1.3,0.6c-0.4,0.1-0.9,0.2-1.4,0.3s-1.1,0.1-1.8,0.1H88.5z M91.1,11.6c1.1,0,1.9-0.1,2.5-0.4
			c0.5-0.2,0.9-0.6,1.2-1c0.3-0.4,0.4-1,0.4-1.7c0-0.4,0-0.7-0.1-1c-0.1-0.3-0.2-0.5-0.4-0.8c-0.2-0.2-0.4-0.4-0.6-0.6
			s-0.5-0.3-0.8-0.4c-0.3-0.1-0.6-0.2-0.9-0.2c-0.3,0-0.7-0.1-1.2-0.1h-0.8v6.1H91.1z"/>
		<path class="st8" d="M106.4,6.7c0,0.6-0.2,1.1-0.6,1.6c-0.4,0.4-1,0.7-1.8,1v0l3,3.6h-2.2l-2.7-3.4h-1.3v3.4H99V4.1h3
			c0.5,0,1,0,1.4,0.1c0.4,0.1,0.8,0.1,1.1,0.2c0.6,0.2,1,0.5,1.4,0.9C106.2,5.7,106.4,6.2,106.4,6.7z M101.7,8.2c0.4,0,0.8,0,1.1,0
			c0.3,0,0.5-0.1,0.7-0.1c0.4-0.1,0.6-0.3,0.8-0.5c0.1-0.2,0.2-0.5,0.2-0.7c0-0.2-0.1-0.4-0.2-0.6c-0.1-0.2-0.3-0.3-0.6-0.4
			c-0.2-0.1-0.4-0.1-0.7-0.2c-0.3,0-0.6,0-1,0h-1.3v2.7H101.7z"/>
		<path class="st8" d="M108.6,11.2h2v1.8h-2V11.2z"/>
		<path class="st8" d="M137,10.7h-3.8l-1,2.2h-1.9l4-8.8h1.7l4,8.8H138L137,10.7z M135.1,6.2c-0.3,0.9-0.7,1.7-0.9,2.3l-0.3,0.8h2.6
			l-0.3-0.8C135.8,7.9,135.5,7.1,135.1,6.2L135.1,6.2z"/>
		<path class="st8" d="M146.6,8.2c0.7,0.9,1.3,1.7,1.7,2.4h0c-0.1-1.1-0.1-2-0.1-2.5v-4h1.8v8.8h-1.9l-3.3-4.1
			c-0.6-0.7-1.2-1.5-1.8-2.4h0c0.1,1.1,0.1,1.9,0.1,2.5v4h-1.8V4.1h1.9L146.6,8.2z"/>
		<path class="st8" d="M152.5,12.9V4.1h2.6c0.2,0,0.5,0,0.7,0c0.2,0,0.5,0,0.7,0.1c0.2,0,0.5,0.1,0.7,0.1c0.2,0,0.4,0.1,0.6,0.1
			c0.5,0.1,1,0.4,1.4,0.6c0.4,0.3,0.8,0.6,1,0.9s0.5,0.7,0.6,1.2c0.1,0.4,0.2,0.9,0.2,1.4c0,0.5-0.1,0.9-0.2,1.3
			c-0.1,0.4-0.3,0.8-0.5,1.1s-0.6,0.6-0.9,0.9c-0.4,0.3-0.8,0.5-1.3,0.6c-0.4,0.1-0.9,0.2-1.4,0.3s-1.1,0.1-1.8,0.1H152.5z
			 M155.1,11.6c1.1,0,1.9-0.1,2.5-0.4c0.5-0.2,0.9-0.6,1.2-1c0.3-0.4,0.4-1,0.4-1.7c0-0.4,0-0.7-0.1-1c-0.1-0.3-0.2-0.5-0.4-0.8
			c-0.2-0.2-0.4-0.4-0.6-0.6s-0.5-0.3-0.8-0.4c-0.3-0.1-0.6-0.2-0.9-0.2c-0.3,0-0.7-0.1-1.2-0.1h-0.8v6.1H155.1z"/>
		<path class="st8" d="M170.4,6.7c0,0.6-0.2,1.1-0.6,1.6c-0.4,0.4-1,0.7-1.8,1v0l3,3.6h-2.2l-2.7-3.4h-1.3v3.4H163V4.1h3
			c0.5,0,1,0,1.4,0.1c0.4,0.1,0.8,0.1,1.1,0.2c0.6,0.2,1,0.5,1.4,0.9C170.2,5.7,170.4,6.2,170.4,6.7z M165.7,8.2c0.4,0,0.8,0,1.1,0
			c0.3,0,0.5-0.1,0.7-0.1c0.4-0.1,0.6-0.3,0.8-0.5s0.2-0.5,0.2-0.7c0-0.2-0.1-0.4-0.2-0.6c-0.1-0.2-0.3-0.3-0.6-0.4
			c-0.2-0.1-0.4-0.1-0.7-0.2s-0.6,0-1,0h-1.3v2.7H165.7z"/>
		<path class="st8" d="M174.4,11.6h4.9v1.4h-6.7V4.1h6.5v1.4h-4.6v2.3h4v1.4h-4V11.6z M177.8,2l-1.4,1.6H175l1-1.6H177.8z"/>
		<path class="st8" d="M186.2,10.4c0-0.2-0.1-0.4-0.2-0.5c-0.1-0.1-0.3-0.3-0.5-0.3c-0.2-0.1-0.5-0.2-0.7-0.2
			c-0.3-0.1-0.5-0.1-0.8-0.2c-0.4-0.1-0.8-0.2-1.1-0.3c-0.4-0.1-0.7-0.2-0.9-0.4s-0.5-0.4-0.6-0.7c-0.2-0.3-0.2-0.6-0.2-1.1
			c0-0.5,0.1-0.9,0.3-1.2c0.2-0.3,0.4-0.6,0.8-0.9c0.3-0.2,0.7-0.4,1.1-0.5c0.4-0.1,0.9-0.2,1.4-0.2c0.5,0,1.1,0,1.6,0.1
			c0.5,0.1,1,0.2,1.4,0.4v1.4c-0.5-0.2-1-0.3-1.5-0.4s-0.9-0.1-1.3-0.1c-0.6,0-1.1,0.1-1.4,0.3c-0.3,0.2-0.5,0.5-0.5,0.9
			c0,0.2,0.1,0.4,0.2,0.6c0.1,0.1,0.3,0.3,0.4,0.4c0.2,0.1,0.4,0.2,0.6,0.2s0.5,0.1,0.8,0.2c0.4,0.1,0.8,0.2,1.2,0.3s0.7,0.2,1,0.4
			c0.3,0.2,0.5,0.4,0.7,0.7s0.3,0.7,0.3,1.1c0,0.5-0.1,0.9-0.3,1.2c-0.2,0.3-0.5,0.6-0.8,0.9c-0.4,0.2-0.8,0.4-1.3,0.5
			c-0.5,0.1-1.1,0.2-1.7,0.2c-0.5,0-1.1,0-1.6-0.1s-1-0.2-1.3-0.4v-1.4c0.5,0.2,1,0.3,1.4,0.4c0.5,0.1,1,0.1,1.4,0.1
			c0.3,0,0.6,0,0.9-0.1c0.3,0,0.5-0.1,0.8-0.2c0.2-0.1,0.4-0.2,0.5-0.4S186.2,10.6,186.2,10.4z"/>
		<path class="st8" d="M94.2,26.9h-3.8l-1,2.2h-1.9l4-8.8h1.7l4,8.8h-1.9L94.2,26.9z M92.3,22.4c-0.3,0.9-0.7,1.7-0.9,2.3L91,25.5
			h2.6l-0.3-0.8C93,24.1,92.7,23.3,92.3,22.4L92.3,22.4z"/>
		<path class="st8" d="M103.7,24.4c0.7,0.9,1.3,1.7,1.7,2.4h0c-0.1-1.1-0.1-2-0.1-2.5v-4h1.8v8.8h-1.9l-3.3-4.1
			c-0.6-0.7-1.2-1.5-1.8-2.4h0c0.1,1.1,0.1,1.9,0.1,2.5v4h-1.8v-8.8h1.9L103.7,24.4z"/>
		<path class="st8" d="M113.7,29.1h-1.8v-7.5h-3.2v-1.4h8.3v1.4h-3.2V29.1z"/>
		<path class="st8" d="M120.2,27.8h4.9v1.4h-6.7v-8.8h6.5v1.4h-4.6v2.3h4v1.4h-4V27.8z"/>
		<path class="st8" d="M128.9,20.3v7.5h4.7v1.4H127v-8.8H128.9z"/>
		<path class="st8" d="M143.9,24.7c0,0.7-0.1,1.3-0.3,1.8s-0.5,1-0.9,1.4c-0.4,0.4-0.9,0.7-1.5,0.9c-0.6,0.2-1.3,0.3-2.1,0.3
			c-0.8,0-1.5-0.1-2.1-0.3c-0.6-0.2-1.1-0.5-1.5-0.9c-0.4-0.4-0.7-0.9-0.9-1.4s-0.3-1.2-0.3-1.8c0-0.7,0.1-1.3,0.3-1.8
			s0.5-1,0.9-1.4c0.4-0.4,0.9-0.7,1.5-0.9c0.6-0.2,1.3-0.3,2.1-0.3c0.8,0,1.5,0.1,2.1,0.3c0.6,0.2,1.1,0.5,1.5,0.9s0.7,0.9,0.9,1.4
			S143.9,24,143.9,24.7z M142.1,24.7c0-0.5-0.1-1-0.2-1.4c-0.1-0.4-0.4-0.7-0.6-1c-0.3-0.3-0.6-0.5-0.9-0.6
			c-0.4-0.1-0.8-0.2-1.2-0.2s-0.8,0.1-1.2,0.2c-0.4,0.1-0.7,0.3-0.9,0.6c-0.3,0.3-0.5,0.6-0.6,1c-0.1,0.4-0.2,0.9-0.2,1.4
			s0.1,1,0.2,1.4c0.1,0.4,0.4,0.7,0.6,1c0.3,0.3,0.6,0.5,0.9,0.6c0.4,0.1,0.8,0.2,1.2,0.2s0.8-0.1,1.2-0.2c0.4-0.1,0.7-0.3,0.9-0.6
			c0.3-0.3,0.5-0.6,0.6-1C142,25.7,142.1,25.2,142.1,24.7z"/>
		<path class="st8" d="M154.1,26.9h-3.8l-1,2.2h-1.9l4-8.8h1.7l4,8.8h-1.9L154.1,26.9z M152.2,22.4c-0.3,0.9-0.7,1.7-0.9,2.3
			l-0.3,0.8h2.6l-0.3-0.8C152.9,24.1,152.6,23.3,152.2,22.4L152.2,22.4z"/>
		<path class="st8" d="M163.6,24.4c0.7,0.9,1.3,1.7,1.7,2.4h0c-0.1-1.1-0.1-2-0.1-2.5v-4h1.8v8.8h-1.9l-3.3-4.1
			c-0.6-0.7-1.2-1.5-1.8-2.4h0c0.1,1.1,0.1,1.9,0.1,2.5v4h-1.8v-8.8h1.9L163.6,24.4z M161.7,18.2c0.2,0,0.4,0,0.6,0.1
			c0.2,0.1,0.4,0.1,0.5,0.2c0.2,0.1,0.3,0.2,0.5,0.2c0.2,0.1,0.3,0.1,0.4,0.1c0.1,0,0.2,0,0.3-0.1c0.1-0.1,0.1-0.2,0.1-0.4h1.2
			c0,0.1,0,0.1,0,0.2c0,0.2,0,0.3-0.1,0.5c0,0.2-0.1,0.3-0.2,0.5s-0.2,0.2-0.4,0.3c-0.2,0.1-0.4,0.1-0.6,0.1c-0.2,0-0.4,0-0.6-0.1
			c-0.2-0.1-0.4-0.1-0.5-0.2c-0.2-0.1-0.3-0.2-0.5-0.2c-0.2-0.1-0.3-0.1-0.4-0.1c-0.1,0-0.2,0-0.3,0.1c-0.1,0.1-0.1,0.2-0.1,0.4
			h-1.2c0-0.1,0-0.1,0-0.2c0-0.2,0-0.3,0.1-0.5c0-0.2,0.1-0.3,0.2-0.5c0.1-0.1,0.2-0.2,0.4-0.3S161.5,18.2,161.7,18.2z"/>
		<path class="st8" d="M178.8,24.7c0,0.7-0.1,1.3-0.3,1.8c-0.2,0.6-0.5,1-0.9,1.4c-0.4,0.4-0.9,0.7-1.5,0.9
			c-0.6,0.2-1.3,0.3-2.1,0.3c-0.8,0-1.5-0.1-2.1-0.3c-0.6-0.2-1.1-0.5-1.5-0.9c-0.4-0.4-0.7-0.9-0.9-1.4c-0.2-0.6-0.3-1.2-0.3-1.8
			c0-0.7,0.1-1.3,0.3-1.8c0.2-0.6,0.5-1,0.9-1.4s0.9-0.7,1.5-0.9c0.6-0.2,1.3-0.3,2.1-0.3c0.8,0,1.5,0.1,2.1,0.3
			c0.6,0.2,1.1,0.5,1.5,0.9s0.7,0.9,0.9,1.4C178.7,23.4,178.8,24,178.8,24.7z M176.9,24.7c0-0.5-0.1-1-0.2-1.4
			c-0.1-0.4-0.4-0.7-0.6-1s-0.6-0.5-0.9-0.6c-0.4-0.1-0.8-0.2-1.2-0.2c-0.4,0-0.8,0.1-1.2,0.2c-0.4,0.1-0.7,0.3-0.9,0.6
			c-0.3,0.3-0.5,0.6-0.6,1c-0.1,0.4-0.2,0.9-0.2,1.4s0.1,1,0.2,1.4c0.1,0.4,0.4,0.7,0.6,1c0.3,0.3,0.6,0.5,0.9,0.6
			c0.4,0.1,0.8,0.2,1.2,0.2c0.4,0,0.8-0.1,1.2-0.2c0.4-0.1,0.7-0.3,0.9-0.6c0.3-0.3,0.5-0.6,0.6-1C176.9,25.7,176.9,25.2,176.9,24.7
			z"/>
		<path class="st8" d="M186,24.4c0.7,0.9,1.3,1.7,1.7,2.4h0c-0.1-1.1-0.1-2-0.1-2.5v-4h1.8v8.8h-1.9l-3.3-4.1
			c-0.6-0.7-1.2-1.5-1.8-2.4h0c0.1,1.1,0.1,1.9,0.1,2.5v4h-1.8v-8.8h1.9L186,24.4z"/>
	</g>
	<g>
		<path class="st11" d="M25.1,36c-0.5,0-1,0-1.5,0.1c-0.4,0.1-0.8,0.2-1.1,0.4c-0.3,0.2-0.6,0.4-0.7,0.7s-0.3,0.6-0.3,0.9
			c0,0.3,0.1,0.6,0.2,0.9c0.2,0.3,0.4,0.5,0.7,0.6c0.3,0.2,0.7,0.3,1.1,0.4c0.4,0.1,0.9,0.1,1.5,0.1c0.4,0,0.8,0,1.2-0.1
			s0.8-0.1,1.2-0.2v0.9c-0.4,0.1-0.8,0.1-1.2,0.1c-0.4,0-0.9,0-1.3,0c-0.9,0-1.7-0.1-2.4-0.2c-0.7-0.1-1.3-0.3-1.7-0.6
			c-0.5-0.3-0.8-0.6-1-0.9c-0.2-0.4-0.3-0.8-0.3-1.2c0-0.4,0.1-0.9,0.4-1.2c0.2-0.4,0.6-0.7,1.1-1s1-0.5,1.7-0.7s1.5-0.2,2.4-0.2
			c0.4,0,0.9,0,1.3,0c0.4,0,0.8,0.1,1.1,0.1v0.9C27,36.1,26.6,36,26.2,36S25.5,36,25.1,36z"/>
		<path class="st11" d="M35.2,35.2v4.9h5V41h-6.9v-5.8H35.2z"/>
		<path class="st11" d="M45.7,41v-5.8h1.9V41H45.7z M48.8,33.8l-1.5,1.1h-1.5l1.1-1.1H48.8z"/>
		<path class="st11" d="M59.5,37.9c0.8,0.6,1.4,1.1,1.9,1.6h0c-0.1-0.8-0.1-1.3-0.1-1.6v-2.6h1.9V41h-2l-3.5-2.7
			c-0.6-0.5-1.2-1-1.9-1.6h0c0.1,0.7,0.1,1.3,0.1,1.7V41h-1.9v-5.8h2L59.5,37.9z"/>
		<path class="st11" d="M69.5,41v-5.8h1.9V41H69.5z"/>
		<path class="st11" d="M82.9,36c-0.5,0-1,0-1.5,0.1c-0.4,0.1-0.8,0.2-1.1,0.4c-0.3,0.2-0.6,0.4-0.7,0.7s-0.3,0.6-0.3,0.9
			c0,0.3,0.1,0.6,0.2,0.9s0.4,0.5,0.7,0.6c0.3,0.2,0.7,0.3,1.1,0.4c0.4,0.1,0.9,0.1,1.5,0.1c0.4,0,0.8,0,1.2-0.1
			c0.4,0,0.8-0.1,1.2-0.2v0.9c-0.4,0.1-0.8,0.1-1.2,0.1c-0.4,0-0.9,0-1.3,0c-0.9,0-1.7-0.1-2.4-0.2c-0.7-0.1-1.3-0.3-1.7-0.6
			c-0.5-0.3-0.8-0.6-1-0.9c-0.2-0.4-0.3-0.8-0.3-1.2c0-0.4,0.1-0.9,0.4-1.2c0.2-0.4,0.6-0.7,1.1-1c0.5-0.3,1-0.5,1.7-0.7
			c0.7-0.2,1.5-0.2,2.4-0.2c0.4,0,0.9,0,1.3,0c0.4,0,0.8,0.1,1.1,0.1v0.9C84.7,36.1,84.3,36,84,36C83.6,36,83.3,36,82.9,36z"/>
		<path class="st11" d="M97.1,39.5h-4L92,41H90l4.2-5.8H96l4.2,5.8h-2.1L97.1,39.5z M95.1,36.6c-0.4,0.6-0.7,1.1-1,1.5l-0.4,0.5h2.7
			l-0.4-0.5C95.8,37.7,95.5,37.2,95.1,36.6L95.1,36.6z"/>
		<path class="st11" d="M112.5,41v-5.8h2.8c0.2,0,0.5,0,0.8,0c0.3,0,0.5,0,0.7,0c0.2,0,0.5,0,0.7,0.1c0.2,0,0.4,0.1,0.6,0.1
			c0.6,0.1,1.1,0.2,1.5,0.4c0.4,0.2,0.8,0.4,1.1,0.6c0.3,0.2,0.5,0.5,0.7,0.8c0.2,0.3,0.2,0.6,0.2,0.9c0,0.3-0.1,0.6-0.2,0.9
			c-0.1,0.3-0.3,0.5-0.6,0.7c-0.3,0.2-0.6,0.4-1,0.6c-0.4,0.2-0.9,0.3-1.4,0.4c-0.4,0.1-1,0.2-1.5,0.2c-0.6,0-1.2,0.1-1.9,0.1H112.5
			z M115.3,40.1c1.1,0,2-0.1,2.7-0.3c0.6-0.2,1-0.4,1.3-0.7c0.3-0.3,0.4-0.7,0.4-1.1c0-0.2,0-0.5-0.1-0.6s-0.2-0.4-0.4-0.5
			c-0.2-0.1-0.4-0.3-0.7-0.4c-0.3-0.1-0.5-0.2-0.9-0.3c-0.3-0.1-0.6-0.1-1-0.1c-0.4,0-0.8,0-1.2,0h-0.9v4H115.3z"/>
		<path class="st11" d="M129.4,40.1h5.2V41h-7.2v-5.8h6.9v0.9h-4.9v1.5h4.2v0.9h-4.2V40.1z"/>
		<path class="st11" d="M146,37.9c0.8,0.6,1.4,1.1,1.9,1.6h0c-0.1-0.8-0.1-1.3-0.1-1.6v-2.6h1.9V41h-2l-3.5-2.7
			c-0.6-0.5-1.2-1-1.9-1.6h0c0.1,0.7,0.1,1.3,0.1,1.7V41h-1.9v-5.8h2L146,37.9z"/>
		<path class="st11" d="M160.4,41h-1.9v-4.9H155v-0.9h8.8v0.9h-3.4V41z"/>
		<path class="st11" d="M174.2,39.5h-4l-1,1.5h-2.1l4.2-5.8h1.8l4.2,5.8h-2.1L174.2,39.5z M172.2,36.6c-0.4,0.6-0.7,1.1-1,1.5
			l-0.4,0.5h2.7l-0.4-0.5C173,37.7,172.6,37.2,172.2,36.6L172.2,36.6z"/>
		<path class="st11" d="M184.5,35.2v4.9h5V41h-6.9v-5.8H184.5z"/>
	</g>
	<text transform="matrix(1 0 0 1 96.0352 20.583)" class="st8 st15 st16">DR.    ANDRÉS</text>
	<text transform="matrix(1 0 0 1 96.0352 41.7803)" class="st8 st15 st16">ANTELO AÑON </text>
</g>
<g id="Layer_5_copy">
	<g>
		<path class="st17" d="M101.6,50.3c0.1,0,0.1,0,0.2,0.1l0.5,0.6c-0.3,0.4-0.6,0.6-1,0.8c-0.4,0.2-0.8,0.3-1.4,0.3
			c-0.5,0-0.9-0.1-1.3-0.3s-0.7-0.4-1-0.8s-0.5-0.7-0.6-1.2c-0.1-0.5-0.2-0.9-0.2-1.5c0-0.5,0.1-1,0.2-1.5c0.2-0.4,0.4-0.8,0.7-1.2
			c0.3-0.3,0.6-0.6,1-0.8c0.4-0.2,0.9-0.3,1.3-0.3c0.5,0,0.9,0.1,1.3,0.3c0.4,0.2,0.7,0.4,0.9,0.7l-0.4,0.6c0,0-0.1,0.1-0.1,0.1
			s-0.1,0-0.2,0c-0.1,0-0.1,0-0.2-0.1s-0.2-0.1-0.3-0.2c-0.1-0.1-0.2-0.1-0.4-0.2c-0.2-0.1-0.4-0.1-0.6-0.1c-0.3,0-0.6,0.1-0.8,0.2
			s-0.5,0.3-0.7,0.5c-0.2,0.2-0.3,0.5-0.4,0.8S98,48,98,48.4c0,0.4,0.1,0.8,0.2,1.1c0.1,0.3,0.2,0.6,0.4,0.8
			c0.2,0.2,0.4,0.4,0.6,0.5c0.2,0.1,0.5,0.2,0.8,0.2c0.2,0,0.3,0,0.4,0c0.1,0,0.3-0.1,0.4-0.1s0.2-0.1,0.3-0.2s0.2-0.2,0.3-0.3
			c0,0,0.1-0.1,0.1-0.1C101.5,50.3,101.5,50.3,101.6,50.3z"/>
		<path class="st17" d="M106.4,50.9h2.6V52h-3.8v-7.2h1.2V50.9z"/>
		<path class="st17" d="M114.4,43.1l-1.3,1.1c0,0-0.1,0-0.1,0.1s-0.1,0-0.1,0c0,0-0.1,0-0.1,0c0,0-0.1,0-0.1,0h-0.9l0.9-1
			c0,0,0.1-0.1,0.1-0.1c0,0,0.1,0,0.1-0.1c0,0,0.1,0,0.1,0c0,0,0.1,0,0.2,0H114.4z M113.2,52H112v-7.2h1.2V52z"/>
		<path class="st17" d="M117.5,44.8C117.5,44.8,117.6,44.8,117.5,44.8c0.1,0,0.2,0.1,0.2,0.1c0,0,0.1,0.1,0.1,0.1l3.4,4.8
			c0-0.1,0-0.2,0-0.3s0-0.2,0-0.3v-4.4h1.1V52h-0.6c-0.1,0-0.2,0-0.2,0c-0.1,0-0.1-0.1-0.2-0.2l-3.4-4.8c0,0.1,0,0.2,0,0.3
			c0,0.1,0,0.2,0,0.3V52h-1.1v-7.2h0.6C117.4,44.8,117.5,44.8,117.5,44.8z"/>
		<path class="st17" d="M126.9,52h-1.2v-7.2h1.2V52z"/>
		<path class="st17" d="M134.8,50.3c0.1,0,0.1,0,0.2,0.1l0.5,0.6c-0.3,0.4-0.6,0.6-1,0.8c-0.4,0.2-0.8,0.3-1.4,0.3
			c-0.5,0-0.9-0.1-1.3-0.3s-0.7-0.4-1-0.8s-0.5-0.7-0.6-1.2c-0.1-0.5-0.2-0.9-0.2-1.5c0-0.5,0.1-1,0.2-1.5c0.2-0.4,0.4-0.8,0.7-1.2
			c0.3-0.3,0.6-0.6,1-0.8c0.4-0.2,0.9-0.3,1.3-0.3c0.5,0,0.9,0.1,1.3,0.3c0.4,0.2,0.7,0.4,0.9,0.7l-0.4,0.6c0,0-0.1,0.1-0.1,0.1
			s-0.1,0-0.2,0c-0.1,0-0.1,0-0.2-0.1s-0.2-0.1-0.3-0.2c-0.1-0.1-0.2-0.1-0.4-0.2c-0.2-0.1-0.4-0.1-0.6-0.1c-0.3,0-0.6,0.1-0.8,0.2
			s-0.5,0.3-0.7,0.5c-0.2,0.2-0.3,0.5-0.4,0.8s-0.2,0.7-0.2,1.1c0,0.4,0.1,0.8,0.2,1.1c0.1,0.3,0.2,0.6,0.4,0.8
			c0.2,0.2,0.4,0.4,0.6,0.5c0.2,0.1,0.5,0.2,0.8,0.2c0.2,0,0.3,0,0.4,0c0.1,0,0.3-0.1,0.4-0.1s0.2-0.1,0.3-0.2s0.2-0.2,0.3-0.3
			c0,0,0.1-0.1,0.1-0.1C134.8,50.3,134.8,50.3,134.8,50.3z"/>
		<path class="st17" d="M144.1,52h-0.9c-0.1,0-0.2,0-0.3-0.1c-0.1-0.1-0.1-0.1-0.1-0.2l-0.5-1.5h-2.7l-0.5,1.5
			c0,0.1-0.1,0.1-0.1,0.2c-0.1,0.1-0.2,0.1-0.3,0.1h-0.9l2.5-7.2h1.2L144.1,52z M140,49.2h2.1l-0.8-2.4c0-0.1-0.1-0.2-0.1-0.4
			c0-0.1-0.1-0.3-0.1-0.5c0,0.2-0.1,0.3-0.1,0.5c0,0.1-0.1,0.3-0.1,0.4L140,49.2z"/>
		<path class="st17" d="M156.4,48.4c0,0.5-0.1,1-0.2,1.5s-0.4,0.8-0.7,1.1c-0.3,0.3-0.6,0.6-1,0.7c-0.4,0.2-0.8,0.3-1.3,0.3h-2.5
			v-7.2h2.5c0.5,0,0.9,0.1,1.3,0.3c0.4,0.2,0.7,0.4,1,0.7c0.3,0.3,0.5,0.7,0.7,1.1S156.4,47.8,156.4,48.4z M155.1,48.4
			c0-0.4,0-0.7-0.1-1.1c-0.1-0.3-0.2-0.6-0.4-0.8c-0.2-0.2-0.4-0.4-0.6-0.5c-0.3-0.1-0.5-0.2-0.8-0.2h-1.3v5.1h1.3
			c0.3,0,0.6-0.1,0.8-0.2c0.3-0.1,0.5-0.3,0.6-0.5c0.2-0.2,0.3-0.5,0.4-0.8C155.1,49.1,155.1,48.8,155.1,48.4z"/>
		<path class="st17" d="M163.4,44.8v1.1h-2.9v2h2.3v1h-2.3v2h2.9V52h-4.1v-7.2H163.4z"/>
		<path class="st17" d="M167.3,44.8C167.3,44.8,167.4,44.8,167.3,44.8c0.1,0,0.2,0.1,0.2,0.1c0,0,0.1,0.1,0.1,0.1l3.4,4.8
			c0-0.1,0-0.2,0-0.3s0-0.2,0-0.3v-4.4h1.1V52h-0.6c-0.1,0-0.2,0-0.2,0c-0.1,0-0.1-0.1-0.2-0.2l-3.4-4.8c0,0.1,0,0.2,0,0.3
			c0,0.1,0,0.2,0,0.3V52h-1.1v-7.2h0.6C167.2,44.8,167.3,44.8,167.3,44.8z"/>
		<path class="st17" d="M179.9,44.8v1.1H178V52h-1.2v-6.1h-1.9v-1.1H179.9z"/>
		<path class="st17" d="M187.7,52h-0.9c-0.1,0-0.2,0-0.3-0.1c-0.1-0.1-0.1-0.1-0.1-0.2l-0.5-1.5h-2.7l-0.5,1.5
			c0,0.1-0.1,0.1-0.1,0.2c-0.1,0.1-0.2,0.1-0.3,0.1h-0.9l2.5-7.2h1.2L187.7,52z M183.6,49.2h2.1l-0.8-2.4c0-0.1-0.1-0.2-0.1-0.4
			c0-0.1-0.1-0.3-0.1-0.5c0,0.2-0.1,0.3-0.1,0.5c0,0.1-0.1,0.3-0.1,0.4L183.6,49.2z"/>
		<path class="st17" d="M191.7,50.9h2.6V52h-3.8v-7.2h1.2V50.9z"/>
	</g>
	<g class="st0">
		<path class="st8" d="M88.5,12.9V4.1h2.6c0.2,0,0.5,0,0.7,0c0.2,0,0.5,0,0.7,0.1c0.2,0,0.5,0.1,0.7,0.1c0.2,0,0.4,0.1,0.6,0.1
			c0.5,0.1,1,0.4,1.4,0.6c0.4,0.3,0.8,0.6,1,0.9s0.5,0.7,0.6,1.2C97,7.5,97.1,8,97.1,8.5c0,0.5-0.1,0.9-0.2,1.3s-0.3,0.8-0.5,1.1
			s-0.6,0.6-0.9,0.9c-0.4,0.3-0.8,0.5-1.3,0.6c-0.4,0.1-0.9,0.2-1.4,0.3s-1.1,0.1-1.8,0.1H88.5z M91.1,11.6c1.1,0,1.9-0.1,2.5-0.4
			c0.5-0.2,0.9-0.6,1.2-1c0.3-0.4,0.4-1,0.4-1.7c0-0.4,0-0.7-0.1-1c-0.1-0.3-0.2-0.5-0.4-0.8c-0.2-0.2-0.4-0.4-0.6-0.6
			s-0.5-0.3-0.8-0.4c-0.3-0.1-0.6-0.2-0.9-0.2c-0.3,0-0.7-0.1-1.2-0.1h-0.8v6.1H91.1z"/>
		<path class="st8" d="M106.4,6.7c0,0.6-0.2,1.1-0.6,1.6c-0.4,0.4-1,0.7-1.8,1v0l3,3.6h-2.2l-2.7-3.4h-1.3v3.4H99V4.1h3
			c0.5,0,1,0,1.4,0.1c0.4,0.1,0.8,0.1,1.1,0.2c0.6,0.2,1,0.5,1.4,0.9C106.2,5.7,106.4,6.2,106.4,6.7z M101.7,8.2c0.4,0,0.8,0,1.1,0
			c0.3,0,0.5-0.1,0.7-0.1c0.4-0.1,0.6-0.3,0.8-0.5c0.1-0.2,0.2-0.5,0.2-0.7c0-0.2-0.1-0.4-0.2-0.6c-0.1-0.2-0.3-0.3-0.6-0.4
			c-0.2-0.1-0.4-0.1-0.7-0.2c-0.3,0-0.6,0-1,0h-1.3v2.7H101.7z"/>
		<path class="st8" d="M108.6,11.2h2v1.8h-2V11.2z"/>
		<path class="st8" d="M137,10.7h-3.8l-1,2.2h-1.9l4-8.8h1.7l4,8.8H138L137,10.7z M135.1,6.2c-0.3,0.9-0.7,1.7-0.9,2.3l-0.3,0.8h2.6
			l-0.3-0.8C135.8,7.9,135.5,7.1,135.1,6.2L135.1,6.2z"/>
		<path class="st8" d="M146.6,8.2c0.7,0.9,1.3,1.7,1.7,2.4h0c-0.1-1.1-0.1-2-0.1-2.5v-4h1.8v8.8h-1.9l-3.3-4.1
			c-0.6-0.7-1.2-1.5-1.8-2.4h0c0.1,1.1,0.1,1.9,0.1,2.5v4h-1.8V4.1h1.9L146.6,8.2z"/>
		<path class="st8" d="M152.5,12.9V4.1h2.6c0.2,0,0.5,0,0.7,0c0.2,0,0.5,0,0.7,0.1c0.2,0,0.5,0.1,0.7,0.1c0.2,0,0.4,0.1,0.6,0.1
			c0.5,0.1,1,0.4,1.4,0.6c0.4,0.3,0.8,0.6,1,0.9s0.5,0.7,0.6,1.2c0.1,0.4,0.2,0.9,0.2,1.4c0,0.5-0.1,0.9-0.2,1.3
			c-0.1,0.4-0.3,0.8-0.5,1.1s-0.6,0.6-0.9,0.9c-0.4,0.3-0.8,0.5-1.3,0.6c-0.4,0.1-0.9,0.2-1.4,0.3s-1.1,0.1-1.8,0.1H152.5z
			 M155.1,11.6c1.1,0,1.9-0.1,2.5-0.4c0.5-0.2,0.9-0.6,1.2-1c0.3-0.4,0.4-1,0.4-1.7c0-0.4,0-0.7-0.1-1c-0.1-0.3-0.2-0.5-0.4-0.8
			c-0.2-0.2-0.4-0.4-0.6-0.6s-0.5-0.3-0.8-0.4c-0.3-0.1-0.6-0.2-0.9-0.2c-0.3,0-0.7-0.1-1.2-0.1h-0.8v6.1H155.1z"/>
		<path class="st8" d="M170.4,6.7c0,0.6-0.2,1.1-0.6,1.6c-0.4,0.4-1,0.7-1.8,1v0l3,3.6h-2.2l-2.7-3.4h-1.3v3.4H163V4.1h3
			c0.5,0,1,0,1.4,0.1c0.4,0.1,0.8,0.1,1.1,0.2c0.6,0.2,1,0.5,1.4,0.9C170.2,5.7,170.4,6.2,170.4,6.7z M165.7,8.2c0.4,0,0.8,0,1.1,0
			c0.3,0,0.5-0.1,0.7-0.1c0.4-0.1,0.6-0.3,0.8-0.5s0.2-0.5,0.2-0.7c0-0.2-0.1-0.4-0.2-0.6c-0.1-0.2-0.3-0.3-0.6-0.4
			c-0.2-0.1-0.4-0.1-0.7-0.2s-0.6,0-1,0h-1.3v2.7H165.7z"/>
		<path class="st8" d="M174.4,11.6h4.9v1.4h-6.7V4.1h6.5v1.4h-4.6v2.3h4v1.4h-4V11.6z M177.8,2l-1.4,1.6H175l1-1.6H177.8z"/>
		<path class="st8" d="M186.2,10.4c0-0.2-0.1-0.4-0.2-0.5c-0.1-0.1-0.3-0.3-0.5-0.3c-0.2-0.1-0.5-0.2-0.7-0.2
			c-0.3-0.1-0.5-0.1-0.8-0.2c-0.4-0.1-0.8-0.2-1.1-0.3c-0.4-0.1-0.7-0.2-0.9-0.4s-0.5-0.4-0.6-0.7c-0.2-0.3-0.2-0.6-0.2-1.1
			c0-0.5,0.1-0.9,0.3-1.2c0.2-0.3,0.4-0.6,0.8-0.9c0.3-0.2,0.7-0.4,1.1-0.5c0.4-0.1,0.9-0.2,1.4-0.2c0.5,0,1.1,0,1.6,0.1
			c0.5,0.1,1,0.2,1.4,0.4v1.4c-0.5-0.2-1-0.3-1.5-0.4s-0.9-0.1-1.3-0.1c-0.6,0-1.1,0.1-1.4,0.3c-0.3,0.2-0.5,0.5-0.5,0.9
			c0,0.2,0.1,0.4,0.2,0.6c0.1,0.1,0.3,0.3,0.4,0.4c0.2,0.1,0.4,0.2,0.6,0.2s0.5,0.1,0.8,0.2c0.4,0.1,0.8,0.2,1.2,0.3s0.7,0.2,1,0.4
			c0.3,0.2,0.5,0.4,0.7,0.7s0.3,0.7,0.3,1.1c0,0.5-0.1,0.9-0.3,1.2c-0.2,0.3-0.5,0.6-0.8,0.9c-0.4,0.2-0.8,0.4-1.3,0.5
			c-0.5,0.1-1.1,0.2-1.7,0.2c-0.5,0-1.1,0-1.6-0.1s-1-0.2-1.3-0.4v-1.4c0.5,0.2,1,0.3,1.4,0.4c0.5,0.1,1,0.1,1.4,0.1
			c0.3,0,0.6,0,0.9-0.1c0.3,0,0.5-0.1,0.8-0.2c0.2-0.1,0.4-0.2,0.5-0.4S186.2,10.6,186.2,10.4z"/>
		<path class="st8" d="M94.2,26.9h-3.8l-1,2.2h-1.9l4-8.8h1.7l4,8.8h-1.9L94.2,26.9z M92.3,22.4c-0.3,0.9-0.7,1.7-0.9,2.3L91,25.5
			h2.6l-0.3-0.8C93,24.1,92.7,23.3,92.3,22.4L92.3,22.4z"/>
		<path class="st8" d="M103.7,24.4c0.7,0.9,1.3,1.7,1.7,2.4h0c-0.1-1.1-0.1-2-0.1-2.5v-4h1.8v8.8h-1.9l-3.3-4.1
			c-0.6-0.7-1.2-1.5-1.8-2.4h0c0.1,1.1,0.1,1.9,0.1,2.5v4h-1.8v-8.8h1.9L103.7,24.4z"/>
		<path class="st8" d="M113.7,29.1h-1.8v-7.5h-3.2v-1.4h8.3v1.4h-3.2V29.1z"/>
		<path class="st8" d="M120.2,27.8h4.9v1.4h-6.7v-8.8h6.5v1.4h-4.6v2.3h4v1.4h-4V27.8z"/>
		<path class="st8" d="M128.9,20.3v7.5h4.7v1.4H127v-8.8H128.9z"/>
		<path class="st8" d="M143.9,24.7c0,0.7-0.1,1.3-0.3,1.8s-0.5,1-0.9,1.4c-0.4,0.4-0.9,0.7-1.5,0.9c-0.6,0.2-1.3,0.3-2.1,0.3
			c-0.8,0-1.5-0.1-2.1-0.3c-0.6-0.2-1.1-0.5-1.5-0.9c-0.4-0.4-0.7-0.9-0.9-1.4s-0.3-1.2-0.3-1.8c0-0.7,0.1-1.3,0.3-1.8
			s0.5-1,0.9-1.4c0.4-0.4,0.9-0.7,1.5-0.9c0.6-0.2,1.3-0.3,2.1-0.3c0.8,0,1.5,0.1,2.1,0.3c0.6,0.2,1.1,0.5,1.5,0.9s0.7,0.9,0.9,1.4
			S143.9,24,143.9,24.7z M142.1,24.7c0-0.5-0.1-1-0.2-1.4c-0.1-0.4-0.4-0.7-0.6-1c-0.3-0.3-0.6-0.5-0.9-0.6
			c-0.4-0.1-0.8-0.2-1.2-0.2s-0.8,0.1-1.2,0.2c-0.4,0.1-0.7,0.3-0.9,0.6c-0.3,0.3-0.5,0.6-0.6,1c-0.1,0.4-0.2,0.9-0.2,1.4
			s0.1,1,0.2,1.4c0.1,0.4,0.4,0.7,0.6,1c0.3,0.3,0.6,0.5,0.9,0.6c0.4,0.1,0.8,0.2,1.2,0.2s0.8-0.1,1.2-0.2c0.4-0.1,0.7-0.3,0.9-0.6
			c0.3-0.3,0.5-0.6,0.6-1C142,25.7,142.1,25.2,142.1,24.7z"/>
		<path class="st8" d="M154.1,26.9h-3.8l-1,2.2h-1.9l4-8.8h1.7l4,8.8h-1.9L154.1,26.9z M152.2,22.4c-0.3,0.9-0.7,1.7-0.9,2.3
			l-0.3,0.8h2.6l-0.3-0.8C152.9,24.1,152.6,23.3,152.2,22.4L152.2,22.4z"/>
		<path class="st8" d="M163.6,24.4c0.7,0.9,1.3,1.7,1.7,2.4h0c-0.1-1.1-0.1-2-0.1-2.5v-4h1.8v8.8h-1.9l-3.3-4.1
			c-0.6-0.7-1.2-1.5-1.8-2.4h0c0.1,1.1,0.1,1.9,0.1,2.5v4h-1.8v-8.8h1.9L163.6,24.4z M161.7,18.2c0.2,0,0.4,0,0.6,0.1
			c0.2,0.1,0.4,0.1,0.5,0.2c0.2,0.1,0.3,0.2,0.5,0.2c0.2,0.1,0.3,0.1,0.4,0.1c0.1,0,0.2,0,0.3-0.1c0.1-0.1,0.1-0.2,0.1-0.4h1.2
			c0,0.1,0,0.1,0,0.2c0,0.2,0,0.3-0.1,0.5c0,0.2-0.1,0.3-0.2,0.5s-0.2,0.2-0.4,0.3c-0.2,0.1-0.4,0.1-0.6,0.1c-0.2,0-0.4,0-0.6-0.1
			c-0.2-0.1-0.4-0.1-0.5-0.2c-0.2-0.1-0.3-0.2-0.5-0.2c-0.2-0.1-0.3-0.1-0.4-0.1c-0.1,0-0.2,0-0.3,0.1c-0.1,0.1-0.1,0.2-0.1,0.4
			h-1.2c0-0.1,0-0.1,0-0.2c0-0.2,0-0.3,0.1-0.5c0-0.2,0.1-0.3,0.2-0.5c0.1-0.1,0.2-0.2,0.4-0.3S161.5,18.2,161.7,18.2z"/>
		<path class="st8" d="M178.8,24.7c0,0.7-0.1,1.3-0.3,1.8c-0.2,0.6-0.5,1-0.9,1.4c-0.4,0.4-0.9,0.7-1.5,0.9
			c-0.6,0.2-1.3,0.3-2.1,0.3c-0.8,0-1.5-0.1-2.1-0.3c-0.6-0.2-1.1-0.5-1.5-0.9c-0.4-0.4-0.7-0.9-0.9-1.4c-0.2-0.6-0.3-1.2-0.3-1.8
			c0-0.7,0.1-1.3,0.3-1.8c0.2-0.6,0.5-1,0.9-1.4s0.9-0.7,1.5-0.9c0.6-0.2,1.3-0.3,2.1-0.3c0.8,0,1.5,0.1,2.1,0.3
			c0.6,0.2,1.1,0.5,1.5,0.9s0.7,0.9,0.9,1.4C178.7,23.4,178.8,24,178.8,24.7z M176.9,24.7c0-0.5-0.1-1-0.2-1.4
			c-0.1-0.4-0.4-0.7-0.6-1s-0.6-0.5-0.9-0.6c-0.4-0.1-0.8-0.2-1.2-0.2c-0.4,0-0.8,0.1-1.2,0.2c-0.4,0.1-0.7,0.3-0.9,0.6
			c-0.3,0.3-0.5,0.6-0.6,1c-0.1,0.4-0.2,0.9-0.2,1.4s0.1,1,0.2,1.4c0.1,0.4,0.4,0.7,0.6,1c0.3,0.3,0.6,0.5,0.9,0.6
			c0.4,0.1,0.8,0.2,1.2,0.2c0.4,0,0.8-0.1,1.2-0.2c0.4-0.1,0.7-0.3,0.9-0.6c0.3-0.3,0.5-0.6,0.6-1C176.9,25.7,176.9,25.2,176.9,24.7
			z"/>
		<path class="st8" d="M186,24.4c0.7,0.9,1.3,1.7,1.7,2.4h0c-0.1-1.1-0.1-2-0.1-2.5v-4h1.8v8.8h-1.9l-3.3-4.1
			c-0.6-0.7-1.2-1.5-1.8-2.4h0c0.1,1.1,0.1,1.9,0.1,2.5v4h-1.8v-8.8h1.9L186,24.4z"/>
	</g>
	<g class="st0">
		<path class="st11" d="M25.1,36c-0.5,0-1,0-1.5,0.1c-0.4,0.1-0.8,0.2-1.1,0.4c-0.3,0.2-0.6,0.4-0.7,0.7s-0.3,0.6-0.3,0.9
			c0,0.3,0.1,0.6,0.2,0.9c0.2,0.3,0.4,0.5,0.7,0.6c0.3,0.2,0.7,0.3,1.1,0.4c0.4,0.1,0.9,0.1,1.5,0.1c0.4,0,0.8,0,1.2-0.1
			s0.8-0.1,1.2-0.2v0.9c-0.4,0.1-0.8,0.1-1.2,0.1c-0.4,0-0.9,0-1.3,0c-0.9,0-1.7-0.1-2.4-0.2c-0.7-0.1-1.3-0.3-1.7-0.6
			c-0.5-0.3-0.8-0.6-1-0.9c-0.2-0.4-0.3-0.8-0.3-1.2c0-0.4,0.1-0.9,0.4-1.2c0.2-0.4,0.6-0.7,1.1-1s1-0.5,1.7-0.7s1.5-0.2,2.4-0.2
			c0.4,0,0.9,0,1.3,0c0.4,0,0.8,0.1,1.1,0.1v0.9C27,36.1,26.6,36,26.2,36S25.5,36,25.1,36z"/>
		<path class="st11" d="M35.2,35.2v4.9h5V41h-6.9v-5.8H35.2z"/>
		<path class="st11" d="M45.7,41v-5.8h1.9V41H45.7z M48.8,33.8l-1.5,1.1h-1.5l1.1-1.1H48.8z"/>
		<path class="st11" d="M59.5,37.9c0.8,0.6,1.4,1.1,1.9,1.6h0c-0.1-0.8-0.1-1.3-0.1-1.6v-2.6h1.9V41h-2l-3.5-2.7
			c-0.6-0.5-1.2-1-1.9-1.6h0c0.1,0.7,0.1,1.3,0.1,1.7V41h-1.9v-5.8h2L59.5,37.9z"/>
		<path class="st11" d="M69.5,41v-5.8h1.9V41H69.5z"/>
		<path class="st11" d="M82.9,36c-0.5,0-1,0-1.5,0.1c-0.4,0.1-0.8,0.2-1.1,0.4c-0.3,0.2-0.6,0.4-0.7,0.7s-0.3,0.6-0.3,0.9
			c0,0.3,0.1,0.6,0.2,0.9s0.4,0.5,0.7,0.6c0.3,0.2,0.7,0.3,1.1,0.4c0.4,0.1,0.9,0.1,1.5,0.1c0.4,0,0.8,0,1.2-0.1
			c0.4,0,0.8-0.1,1.2-0.2v0.9c-0.4,0.1-0.8,0.1-1.2,0.1c-0.4,0-0.9,0-1.3,0c-0.9,0-1.7-0.1-2.4-0.2c-0.7-0.1-1.3-0.3-1.7-0.6
			c-0.5-0.3-0.8-0.6-1-0.9c-0.2-0.4-0.3-0.8-0.3-1.2c0-0.4,0.1-0.9,0.4-1.2c0.2-0.4,0.6-0.7,1.1-1c0.5-0.3,1-0.5,1.7-0.7
			c0.7-0.2,1.5-0.2,2.4-0.2c0.4,0,0.9,0,1.3,0c0.4,0,0.8,0.1,1.1,0.1v0.9C84.7,36.1,84.3,36,84,36C83.6,36,83.3,36,82.9,36z"/>
		<path class="st11" d="M97.1,39.5h-4L92,41H90l4.2-5.8H96l4.2,5.8h-2.1L97.1,39.5z M95.1,36.6c-0.4,0.6-0.7,1.1-1,1.5l-0.4,0.5h2.7
			l-0.4-0.5C95.8,37.7,95.5,37.2,95.1,36.6L95.1,36.6z"/>
		<path class="st11" d="M112.5,41v-5.8h2.8c0.2,0,0.5,0,0.8,0c0.3,0,0.5,0,0.7,0c0.2,0,0.5,0,0.7,0.1c0.2,0,0.4,0.1,0.6,0.1
			c0.6,0.1,1.1,0.2,1.5,0.4c0.4,0.2,0.8,0.4,1.1,0.6c0.3,0.2,0.5,0.5,0.7,0.8c0.2,0.3,0.2,0.6,0.2,0.9c0,0.3-0.1,0.6-0.2,0.9
			c-0.1,0.3-0.3,0.5-0.6,0.7c-0.3,0.2-0.6,0.4-1,0.6c-0.4,0.2-0.9,0.3-1.4,0.4c-0.4,0.1-1,0.2-1.5,0.2c-0.6,0-1.2,0.1-1.9,0.1H112.5
			z M115.3,40.1c1.1,0,2-0.1,2.7-0.3c0.6-0.2,1-0.4,1.3-0.7c0.3-0.3,0.4-0.7,0.4-1.1c0-0.2,0-0.5-0.1-0.6s-0.2-0.4-0.4-0.5
			c-0.2-0.1-0.4-0.3-0.7-0.4c-0.3-0.1-0.5-0.2-0.9-0.3c-0.3-0.1-0.6-0.1-1-0.1c-0.4,0-0.8,0-1.2,0h-0.9v4H115.3z"/>
		<path class="st11" d="M129.4,40.1h5.2V41h-7.2v-5.8h6.9v0.9h-4.9v1.5h4.2v0.9h-4.2V40.1z"/>
		<path class="st11" d="M146,37.9c0.8,0.6,1.4,1.1,1.9,1.6h0c-0.1-0.8-0.1-1.3-0.1-1.6v-2.6h1.9V41h-2l-3.5-2.7
			c-0.6-0.5-1.2-1-1.9-1.6h0c0.1,0.7,0.1,1.3,0.1,1.7V41h-1.9v-5.8h2L146,37.9z"/>
		<path class="st11" d="M160.4,41h-1.9v-4.9H155v-0.9h8.8v0.9h-3.4V41z"/>
		<path class="st11" d="M174.2,39.5h-4l-1,1.5h-2.1l4.2-5.8h1.8l4.2,5.8h-2.1L174.2,39.5z M172.2,36.6c-0.4,0.6-0.7,1.1-1,1.5
			l-0.4,0.5h2.7l-0.4-0.5C173,37.7,172.6,37.2,172.2,36.6L172.2,36.6z"/>
		<path class="st11" d="M184.5,35.2v4.9h5V41h-6.9v-5.8H184.5z"/>
	</g>
	<g>
		<path class="st5" d="M96.9,4.6h4c2.5,0,3.7,1.4,3.7,3.9v8.1c0,2.6-1.2,3.9-3.7,3.9h-4V4.6z M99.5,6.9v11.4h1.4
			c0.8,0,1.3-0.4,1.3-1.6V8.4c0-1.1-0.5-1.6-1.3-1.6H99.5z"/>
		<path class="st5" d="M112.2,20.6c-0.1-0.4-0.2-0.7-0.2-2v-2.5c0-1.5-0.5-2-1.6-2h-0.9v6.5h-2.5v-16h3.8c2.6,0,3.7,1.2,3.7,3.7v1.3
			c0,1.6-0.5,2.7-1.6,3.2c1.3,0.5,1.7,1.7,1.7,3.4v2.5c0,0.8,0,1.3,0.3,1.9H112.2z M109.5,6.9v4.9h1c0.9,0,1.5-0.4,1.5-1.7V8.5
			c0-1.1-0.4-1.6-1.3-1.6H109.5z"/>
		<path class="st5" d="M119.2,18.2v2.4h-2.4v-2.4H119.2z"/>
		<path class="st5" d="M146.8,20.6h-2.5l-0.4-2.9h-3.1l-0.4,2.9H138l2.6-16h3.7L146.8,20.6z M141,15.5h2.4l-1.2-8.1L141,15.5z"/>
		<path class="st5" d="M150.8,9v11.6h-2.3v-16h3.1l2.6,9.6V4.6h2.2v16H154L150.8,9z"/>
		<path class="st5" d="M159,4.6h4c2.5,0,3.7,1.4,3.7,3.9v8.1c0,2.6-1.2,3.9-3.7,3.9h-4V4.6z M161.6,6.9v11.4h1.4
			c0.8,0,1.3-0.4,1.3-1.6V8.4c0-1.1-0.5-1.6-1.3-1.6H161.6z"/>
		<path class="st5" d="M174.3,20.6c-0.1-0.4-0.2-0.7-0.2-2v-2.5c0-1.5-0.5-2-1.6-2h-0.9v6.5H169v-16h3.8c2.6,0,3.7,1.2,3.7,3.7v1.3
			c0,1.6-0.5,2.7-1.6,3.2c1.3,0.5,1.7,1.7,1.7,3.4v2.5c0,0.8,0,1.3,0.3,1.9H174.3z M171.5,6.9v4.9h1c0.9,0,1.5-0.4,1.5-1.7V8.5
			c0-1.1-0.4-1.6-1.3-1.6H171.5z"/>
		<path class="st5" d="M181.4,11.3h3.4v2.3h-3.4v4.7h4.3v2.3h-6.8v-16h6.8v2.3h-4.3V11.3z M185,1.2l-2.3,2.5H181l1.6-2.5H185z"/>
		<path class="st5" d="M191.4,4.4c2.4,0,3.7,1.5,3.7,4v0.5h-2.4V8.3c0-1.1-0.5-1.6-1.3-1.6s-1.3,0.4-1.3,1.6c0,3.3,4.9,3.9,4.9,8.5
			c0,2.6-1.3,4-3.7,4c-2.5,0-3.7-1.5-3.7-4v-1h2.4v1.1c0,1.1,0.5,1.6,1.3,1.6s1.3-0.4,1.3-1.6c0-3.3-4.9-3.9-4.9-8.5
			C187.7,5.9,188.9,4.4,191.4,4.4z"/>
	</g>
	<g>
		<path class="st5" d="M105.1,41.8h-2.5l-0.4-2.9H99l-0.4,2.9h-2.3l2.6-16h3.7L105.1,41.8z M99.3,36.7h2.4l-1.2-8.1L99.3,36.7z"/>
		<path class="st5" d="M109.2,30.2v11.6h-2.3v-16h3.1l2.6,9.6v-9.6h2.2v16h-2.6L109.2,30.2z"/>
		<path class="st5" d="M116.6,25.8h7.8v2.3h-2.6v13.7h-2.5V28.1h-2.6V25.8z"/>
		<path class="st5" d="M128.7,32.5h3.4v2.3h-3.4v4.7h4.3v2.3h-6.8v-16h6.8v2.3h-4.3V32.5z"/>
		<path class="st5" d="M135.3,25.8h2.5v13.7h4.1v2.3h-6.6V25.8z"/>
		<path class="st5" d="M143.5,29.6c0-2.6,1.3-4,3.8-4c2.5,0,3.8,1.5,3.8,4v8.3c0,2.6-1.3,4-3.8,4c-2.5,0-3.8-1.5-3.8-4V29.6z
			 M146,38.1c0,1.1,0.5,1.6,1.3,1.6s1.3-0.4,1.3-1.6v-8.6c0-1.1-0.5-1.6-1.3-1.6s-1.3,0.4-1.3,1.6V38.1z"/>
		<path class="st5" d="M165.8,41.8h-2.5l-0.4-2.9h-3.1l-0.4,2.9H157l2.6-16h3.7L165.8,41.8z M160,36.7h2.4l-1.2-8.1L160,36.7z"/>
		<path class="st5" d="M169.8,30.2v11.6h-2.3v-16h3.1l2.6,9.6v-9.6h2.2v16H173L169.8,30.2z M173.4,22.6l1.2,0.8
			c-0.4,1.2-1.1,1.6-1.9,1.6c-1,0-1.4-0.6-2.1-0.6c-0.4,0-0.7,0.1-1,0.7l-1.2-0.8c0.4-1.2,1.1-1.6,1.9-1.6c1,0,1.4,0.6,2.1,0.6
			C172.9,23.2,173.2,23.1,173.4,22.6z"/>
		<path class="st5" d="M177.8,29.6c0-2.6,1.3-4,3.8-4c2.5,0,3.8,1.5,3.8,4v8.3c0,2.6-1.3,4-3.8,4c-2.5,0-3.8-1.5-3.8-4V29.6z
			 M180.3,38.1c0,1.1,0.5,1.6,1.3,1.6s1.3-0.4,1.3-1.6v-8.6c0-1.1-0.5-1.6-1.3-1.6s-1.3,0.4-1.3,1.6V38.1z"/>
		<path class="st5" d="M190,30.2v11.6h-2.3v-16h3.1l2.6,9.6v-9.6h2.2v16h-2.6L190,30.2z"/>
	</g>
</g>
</svg>
