<?xml version="1.0" encoding="utf-8"?>
<!-- Generator: Adobe Illustrator 22.1.0, SVG Export Plug-In . SVG Version: 6.00 Build 0)  -->
<svg version="1.1" xmlns="http://www.w3.org/2000/svg" xmlns:xlink="http://www.w3.org/1999/xlink" x="0px" y="0px" width="190px"
	 height="40px" viewBox="0 0 190 40" style="enable-background:new 0 0 190 40;" xml:space="preserve">
<style type="text/css">
	.st0{fill:#FFFFFF;}
	.st1{font-family:'Poppins-Bold';}
	.st2{font-size:20.9785px;}
	.st3{display:none;fill:#FFFFFF;}
	.st4{font-size:11.3884px;}
	.st5{display:none;}
	.st6{display:inline;}
	.st7{enable-background:new    ;}
	.st8{fill:#00AEB5;}
	.st9{display:inline;fill:#00AEB5;}
	.st10{display:inline;fill:#FFFFFF;}
</style>
<g id="Layer_1_copy">
	<text transform="matrix(1 0 0 1 37.2335 21.7166)" class="st0 st1 st2">Clínica Dental</text>
	<circle class="st3" cx="33.5" cy="46.4" r="41"/>
	<text transform="matrix(1 0 0 1 39.3321 34.5379)" class="st0 st1 st4">Dr.        Andrés Antelo Añón  </text>
	<path class="st0" d="M31,4.1c-2.3-4.1-4.9-3.8-6.5-3s-5,3.6-6.9,4.1C12.1,6.5,4-2.5,1.7,9s7.1,26.3,7.1,26.3s2.2,3.5,4.4,3.5
		c2.2-0.1,2.7-2.9,2.9-6.8s2.1-4,2.4-0.4c0.3,3.5,1.6,8.3,5.7,6s4.7-9.4,7.2-15.2C33.9,16.6,33.4,8.1,31,4.1z M14,12.4h-2.5V15H8.3
		v-2.4H5.8V9.2h2.5V6.8h3.2v2.3H14V12.4z"/>
</g>
<g id="Layer_1" class="st5">
	<text transform="matrix(1 0 0 1 -5.8707 -133.4776)" class="st9 st1" style="font-size:35px;">Clínica Dental</text>
	<circle class="st9" cx="-55.8" cy="-136.9" r="41.4"/>
	<text transform="matrix(1 0 0 1 -2.3707 -112.0873)" class="st10 st1" style="font-size:19px;">Dr.        Andrés Antelo Añón  </text>
	<path class="st10" d="M-70.9-110.8c0,0-15.8-24.7-11.8-43.9s17.5-4.1,26.6-6.4c3.1-0.8,8.7-5.4,11.5-6.8s7-1.8,10.9,5
		s4.8,21,0.6,30.6c-4.2,9.6-5.1,21.5-12,25.3s-9-4.1-9.5-10s-3.6-5.8-4,0.7s-1.3,11.1-4.9,11.3C-67.2-104.9-70.9-110.8-70.9-110.8z"
		/>
	<polygon class="st9" points="-71.6,-154.4 -71.6,-158.3 -66.3,-158.3 -66.3,-154.4 -62.1,-154.4 -62.1,-149 -66.3,-149 
		-66.3,-144.7 -71.6,-144.7 -71.6,-148.7 -75.7,-148.7 -75.7,-154.4 	"/>
</g>
</svg>
